# Blender v2.90.0 OBJ File: 'LegoBricks.blend'
# www.blender.org
mtllib 2x1.mtl
o Cube.005
v -5.565084 0.665048 0.240870
v -5.737157 0.665048 0.240870
v -5.737157 0.665048 0.403070
v -5.565084 0.665048 0.403070
v -5.565084 0.030160 0.403070
v -5.737157 0.030160 0.403070
v -5.737157 0.030160 -0.078101
v -5.737157 0.665048 -0.078101
v -5.737157 0.665048 -0.237039
v -5.737157 0.030160 -0.237039
v -4.759814 0.030160 0.240870
v -4.588292 0.030160 0.240870
v -4.588292 0.030160 0.403070
v -4.759814 0.030160 0.403070
v -4.588292 0.665048 0.240842
v -4.588292 0.665048 0.403070
v -4.759814 0.030160 -0.237039
v -4.759814 0.665048 -0.237039
v -4.588292 0.665048 -0.237039
v -4.588292 0.030160 -0.237039
v -5.737157 0.030160 0.240870
v -5.565084 0.665048 -0.078101
v -4.759814 0.030160 -0.078335
v -4.588292 0.030160 -0.078101
v -4.588292 0.665048 -0.078101
v -5.565084 0.665048 -0.237039
v -5.057212 0.030160 -0.237039
v -5.057212 0.030160 -0.078352
v -4.759814 0.665048 -0.078101
v -5.057212 0.030160 0.240870
v -5.057212 0.612335 0.240870
v -4.759814 0.612335 0.240870
v -4.759814 0.665048 0.240870
v -5.565084 0.030160 0.240870
v -5.565084 0.030160 -0.078101
v -5.565084 0.612335 -0.078101
v -5.565084 0.612335 0.240870
v -5.057212 0.665048 -0.237039
v -5.057212 0.030160 0.403070
v -4.759814 0.665048 0.403070
v -5.565084 0.030160 -0.237039
v -5.276678 0.665048 -0.237039
v -5.276678 0.665048 -0.078101
v -5.276678 0.030160 0.403070
v -5.276678 0.665048 0.403070
v -5.276678 0.665048 0.240870
v -5.057212 0.665048 0.240870
v -5.057212 0.665048 0.403070
v -5.057212 0.665048 -0.078101
v -5.276678 0.030160 0.240870
v -5.276678 0.030160 -0.237039
v -5.276678 0.030160 -0.078352
v -5.276678 0.612335 -0.078101
v -5.057212 0.612335 -0.078101
v -5.276678 0.783508 -0.078101
v -5.565084 0.783508 -0.078101
v -5.565084 0.783508 0.240842
v -5.276678 0.783508 0.240842
v -4.759814 0.783508 -0.078101
v -5.057212 0.783508 -0.078101
v -5.057212 0.783508 0.240842
v -4.759814 0.783508 0.240842
v -4.759814 0.612335 -0.078335
v -5.276678 0.612335 0.240842
vt 0.614107 0.733000
vt 0.614107 0.792274
vt 0.558233 0.792274
vt 0.558233 0.732999
vt 0.438170 0.617551
vt 0.219468 0.617551
vt 0.219468 0.558276
vt 0.438170 0.558276
vt 0.833994 0.000255
vt 0.833994 0.218957
vt 0.779244 0.218957
vt 0.779244 0.000255
vt 0.722860 0.059340
vt 0.722860 0.000255
vt 0.778734 0.000255
vt 0.778734 0.059340
vt 0.779244 0.384095
vt 0.997946 0.384085
vt 0.997946 0.439968
vt 0.779244 0.439968
vt 0.218957 0.617361
vt 0.000255 0.617361
vt 0.000255 0.558276
vt 0.218957 0.558276
vt 0.999745 0.000255
vt 0.999745 0.218957
vt 0.943871 0.218957
vt 0.943871 0.000255
vt 0.723984 0.732999
vt 0.723984 0.792274
vt 0.612903 0.059340
vt 0.612983 0.000255
vt 0.779244 0.274217
vt 0.997946 0.274217
vt 0.778734 0.732999
vt 0.778734 0.792274
vt 0.558233 0.059340
vt 0.558233 0.000255
vt 0.779244 0.219467
vt 0.997946 0.219467
vt 0.558233 0.161786
vt 0.612897 0.161786
vt 0.778734 0.396520
vt 0.778734 0.455605
vt 0.723984 0.455605
vt 0.723984 0.396520
vt 0.071769 0.390630
vt 0.072039 0.307686
vt 0.234412 0.308214
vt 0.234138 0.391159
vt 0.614107 0.455605
vt 0.614116 0.396520
vt 0.235380 0.004189
vt 0.324342 0.004472
vt 0.323827 0.166842
vt 0.234865 0.166560
vt 0.218957 0.719808
vt 0.000255 0.719807
vt 0.722860 0.161786
vt 0.778734 0.161786
vt 0.438170 0.954031
vt 0.219468 0.954031
vt 0.219468 0.894946
vt 0.438170 0.894946
vt 0.558233 0.455605
vt 0.558233 0.396520
vt 0.722860 0.396010
vt 0.722860 0.336735
vt 0.778734 0.336735
vt 0.778734 0.396010
vt 0.218958 0.954031
vt 0.000255 0.954031
vt 0.000255 0.894756
vt 0.218958 0.894756
vt 0.612983 0.396010
vt 0.612983 0.336735
vt 0.558233 0.396010
vt 0.558233 0.336735
vt 0.778734 0.633651
vt 0.723984 0.633651
vt 0.438170 0.716900
vt 0.219468 0.716900
vt 0.614107 0.633651
vt 0.558233 0.633651
vt 0.614107 0.558051
vt 0.558233 0.558051
vt 0.219467 0.792500
vt 0.438170 0.792500
vt 0.778734 0.558051
vt 0.723984 0.558051
vt 0.722860 0.237386
vt 0.778734 0.237386
vt 0.218957 0.795407
vt 0.000255 0.795407
vt 0.558233 0.237386
vt 0.612897 0.237386
vt 0.486204 0.167332
vt 0.485961 0.247773
vt 0.323576 0.247283
vt 0.485777 0.308986
vt 0.323388 0.308502
vt 0.929918 0.673275
vt 0.929918 0.772624
vt 0.820050 0.772624
vt 0.820050 0.673275
vt 0.820041 0.632469
vt 0.929918 0.632469
vt 0.929918 0.813430
vt 0.820041 0.813430
vt 0.970724 0.673275
vt 0.970724 0.772624
vt 0.779244 0.772624
vt 0.779244 0.673275
vt 0.922496 0.591152
vt 0.820050 0.591152
vt 0.820050 0.481285
vt 0.922496 0.481285
vt 0.963303 0.481275
vt 0.963303 0.591152
vt 0.922496 0.631959
vt 0.820051 0.631959
vt 0.779244 0.591152
vt 0.779244 0.481275
vt 0.820050 0.440478
vt 0.922496 0.440478
vt 0.323163 0.391459
vt 0.234613 0.247002
vt 0.322615 0.553826
vt 0.233590 0.553525
vt 0.072237 0.246475
vt 0.072496 0.166040
vt 0.485535 0.391927
vn 0.0000 1.0000 0.0000
vn 0.0000 -0.0000 1.0000
vn -1.0000 -0.0000 0.0000
vn 0.0000 -1.0000 -0.0000
vn 1.0000 0.0000 0.0000
vn 0.0000 0.0000 -1.0000
vn 0.0004 -0.0002 1.0000
vn 0.0002 -0.0003 1.0000
vn 0.0000 0.0002 1.0000
usemtl Material.005
s 1
f 1/1/1 2/2/1 3/3/1 4/4/1
f 5/5/2 4/6/2 3/7/2 6/8/2
f 7/9/3 8/10/3 9/11/3 10/12/3
f 11/13/4 12/14/4 13/15/4 14/16/4
f 12/17/5 15/18/5 16/19/5 13/20/5
f 17/21/6 18/22/6 19/23/6 20/24/6
f 6/25/3 3/26/3 2/27/3 21/28/3
f 21/28/3 2/27/3 8/10/3 7/9/3
f 22/29/1 8/30/1 2/2/1 1/1/1
f 23/31/4 24/32/4 12/14/4 11/13/4
f 24/33/5 25/34/5 15/18/5 12/17/5
f 26/35/1 9/36/1 8/30/1 22/29/1
f 17/37/4 20/38/4 24/32/4 23/31/4
f 20/39/5 19/40/5 25/34/5 24/33/5
f 27/41/4 17/37/4 23/31/4 28/42/4
f 19/43/1 18/44/1 29/45/1 25/46/1
f 11/47/6 30/48/6 31/49/6 32/50/6
f 25/46/1 29/45/1 33/51/1 15/52/1
f 34/53/5 35/54/5 36/55/5 37/56/5
f 27/57/6 38/58/6 18/22/6 17/21/6
f 30/59/4 11/13/4 14/16/4 39/60/4
f 13/61/2 16/62/2 40/63/2 14/64/2
f 15/52/1 33/51/1 40/65/1 16/66/1
f 21/67/4 34/68/4 5/69/4 6/70/4
f 10/71/6 9/72/6 26/73/6 41/74/6
f 7/75/4 35/76/4 34/68/4 21/67/4
f 10/77/4 41/78/4 35/76/4 7/75/4
f 42/79/1 26/35/1 22/29/1 43/80/1
f 44/81/2 45/82/2 4/6/2 5/5/2
f 46/83/1 1/1/1 4/4/1 45/84/1
f 33/51/1 47/85/1 48/86/1 40/65/1
f 14/64/2 40/63/2 48/87/2 39/88/2
f 18/44/1 38/89/1 49/90/1 29/45/1
f 50/91/4 30/59/4 39/60/4 44/92/4
f 51/93/6 42/94/6 38/58/6 27/57/6
f 51/95/4 27/41/4 28/42/4 52/96/4
f 41/78/4 51/95/4 52/96/4 35/76/4
f 35/97/7 52/98/8 53/99/8 36/55/7
f 52/98/8 28/100/8 54/101/8 53/99/8
f 41/74/6 26/73/6 42/94/6 51/93/6
f 34/68/4 50/91/4 44/92/4 5/69/4
f 47/85/1 46/83/1 45/84/1 48/86/1
f 39/88/2 48/87/2 45/82/2 44/81/2
f 49/90/1 43/80/1 46/83/1 47/85/1
f 38/89/1 42/79/1 43/80/1 49/90/1
f 55/102/1 56/103/1 57/104/1 58/105/1
f 46/106/5 43/107/5 55/102/5 58/105/5
f 22/108/3 1/109/3 57/104/3 56/103/3
f 43/110/6 22/111/6 56/103/6 55/102/6
f 1/112/9 46/113/9 58/105/9 57/104/9
f 59/114/1 60/115/1 61/116/1 62/117/1
f 33/118/5 29/119/5 59/114/5 62/117/5
f 29/120/6 49/121/6 60/115/6 59/114/6
f 49/122/3 47/123/3 61/116/3 60/115/3
f 47/124/9 33/125/9 62/117/9 61/116/9
f 54/101/4 63/126/4 32/50/4 31/49/4
f 53/99/4 54/101/4 31/49/4 64/127/4
f 36/55/4 53/99/4 64/127/4 37/56/4
f 23/128/3 11/129/3 32/50/3 63/126/3
f 30/48/6 50/130/6 64/127/6 31/49/6
f 50/130/6 34/131/6 37/56/6 64/127/6
f 28/100/8 23/132/7 63/126/7 54/101/8
