# Blender v2.90.0 OBJ File: 'Objects.blend'
# www.blender.org
mtllib Juicebox.mtl
o Plane_Plane.002
v -0.041429 5.690519 -3.714406
v 0.041429 0.043643 -3.646996
v -0.041429 5.926455 -7.103441
v 0.041429 -0.057473 -7.103441
v -0.000000 2.867081 -3.680701
v 0.000000 2.934491 -7.328142
v -0.041429 5.734235 -4.342352
v 0.041429 0.024907 -4.287432
v -0.041429 5.706416 -3.942750
v 0.041429 0.036830 -3.879882
v -0.016730 6.848465 -4.035636
v -0.016730 6.708297 -3.636034
v -0.016730 6.848465 -4.035636
v -0.016730 6.708297 -3.636034
v -0.016730 6.988904 -4.035636
v -0.016730 7.073436 -3.636034
v -0.016730 6.343157 -2.905756
v -0.016730 7.073436 -2.905756
v -0.482696 5.684140 -3.714529
v -0.399838 0.037264 -3.647118
v -0.482696 5.920076 -7.103564
v -0.399838 -0.063852 -7.103563
v -0.441267 2.860702 -3.680823
v -0.441267 2.928112 -7.328264
v -0.482696 5.727856 -4.342475
v -0.399838 0.018528 -4.287555
v -0.441267 2.873192 -4.356649
v -0.482696 5.700037 -3.942873
v -0.399838 0.030451 -3.880004
v -0.441267 2.865244 -3.926578
v 0.266538 5.688260 -3.714881
v 0.349396 0.041384 -3.647470
v 0.266538 5.924196 -7.103916
v 0.349396 -0.059731 -7.103916
v 0.307967 2.864822 -3.681176
v 0.307967 2.932233 -7.328617
v 0.266538 5.731977 -4.342827
v 0.349396 0.022649 -4.287907
v 0.266538 5.704157 -3.943225
v 0.349396 0.034571 -3.880356
v 0.291237 6.846208 -4.036110
v 0.291237 6.706038 -3.636508
v 0.291237 6.846208 -4.036110
v 0.291237 6.706038 -3.636508
v 0.291237 6.986645 -4.036110
v 0.291237 7.071177 -3.636508
v 0.291237 6.340899 -2.906231
v 0.291237 7.071177 -2.906231
v 0.650322 5.677341 -3.785607
v 0.733181 0.030465 -3.718196
v 0.650322 5.913277 -7.174642
v 0.733181 -0.070651 -7.174642
v 0.691752 2.853903 -3.751901
v 0.691751 2.921313 -7.399342
v 0.650322 5.721057 -4.413553
v 0.733181 0.011729 -4.358633
v 0.650322 5.693238 -4.013950
v 0.733181 0.023652 -3.951082
v 0.691752 2.858165 -3.982514
v 0.691752 2.865624 -4.386086
vt 0.000000 0.000000
vt 0.000000 0.000000
vt 0.000000 0.000000
vt 0.000000 0.000000
vt 0.000000 0.000000
vt 0.000000 0.000000
vt 0.000000 0.000000
vt 0.000000 0.000000
vt 0.000000 0.000000
vt 0.000000 0.000000
vt 0.000000 0.000000
vt 0.000000 0.000000
vt 0.000000 0.000000
vt 0.000000 0.000000
vt 0.000000 0.000000
vt 0.000000 0.000000
vt 0.000000 0.000000
vt 0.000000 0.000000
vt 0.000000 0.000000
vt 0.000000 0.000000
vt 0.000000 0.000000
vt 0.000000 0.000000
vt 0.000000 0.000000
vt 0.000000 0.000000
vt 0.000000 0.000000
vt 0.000000 0.000000
vt 0.000000 0.000000
vt 0.000000 0.000000
vt 0.500000 0.185288
vt 1.000000 0.185288
vt 1.000000 1.000000
vt 0.500000 1.000000
vt 0.000000 0.185288
vt 0.000000 1.000000
vt 0.000000 0.067377
vt 0.500000 0.067377
vt 1.000000 0.067377
vt 0.500000 0.000000
vt 1.000000 0.000000
vt 0.000000 0.185288
vt 0.000000 0.067377
vt 0.000000 0.067377
vt 0.000000 0.185288
vt 0.000000 0.185288
vt 0.000000 0.067377
vt 0.000000 0.185288
vt 0.000000 0.067377
vt 0.000000 0.067377
vt 0.000000 0.067377
vt 0.000000 0.000000
vt 0.000000 0.000000
vt 0.000000 0.000000
vt 0.000000 0.000000
vt 0.000000 0.000000
vt 0.000000 0.000000
vt 0.000000 0.000000
vt 0.000000 0.000000
vt 0.000000 0.000000
vt 0.000000 0.000000
vt 0.000000 0.000000
vt 0.000000 0.000000
vt 0.000000 0.000000
vt 0.000000 0.000000
vt 0.000000 0.000000
vt 0.000000 0.000000
vt 0.000000 0.000000
vt 0.000000 0.000000
vt 0.000000 0.000000
vt 0.000000 0.000000
vt 0.000000 0.000000
vt 0.000000 0.000000
vt 0.000000 0.000000
vt 0.000000 0.000000
vt 0.000000 0.000000
vt 0.000000 0.000000
vt 0.000000 0.000000
vt 0.000000 0.000000
vt 0.000000 0.185288
vt 0.000000 0.067377
vt 0.000000 0.000000
vt 0.000000 0.000000
vn 0.0004 -0.0119 -0.9999
vn 0.0144 -0.9975 -0.0694
vn 0.0008 -0.0749 0.9972
vn -0.0144 0.9995 -0.0292
vn -0.0015 0.0000 -1.0000
vn -0.0016 -0.0120 -0.9999
vn 0.0073 0.9995 -0.0292
vn 0.9999 0.0142 -0.0001
vn 0.9999 0.0141 0.0006
vn 0.9999 0.0146 0.0006
vn 0.9999 0.0146 -0.0001
vn -0.0014 0.0749 0.9972
vn 0.9997 -0.0220 -0.0046
vn 1.0000 0.0000 0.0000
vn 0.0015 0.0000 1.0000
vn 0.0010 -0.0749 0.9972
vn 0.0005 0.2654 -0.9641
vn -0.0072 -0.8944 -0.4472
vn -0.0007 -0.2927 0.9562
vn 0.0073 1.0000 0.0000
vn 0.0021 0.0749 0.9972
vn 0.0000 0.0000 1.0000
vn -0.0074 -0.9976 -0.0694
vn 0.0069 0.9783 -0.2070
vn 0.1828 0.0761 0.9802
vn 0.0230 0.9993 -0.0292
vn -0.0411 -0.9967 -0.0694
vn 0.1788 -0.0712 0.9813
vn -0.1816 -0.0144 -0.9833
vn -0.9999 -0.0142 0.0001
vn -0.9999 -0.0141 -0.0006
vn -0.9999 -0.0146 0.0001
vn -0.9999 -0.0146 -0.0006
vn -1.0000 0.0000 0.0000
usemtl None
s off
f 1/1/1 5/2/1 23/3/1 19/4/1
f 3/5/2 7/6/2 25/7/2 21/8/2
f 9/9/2 1/1/2 19/4/2 28/10/2
f 6/11/3 3/5/3 21/8/3 24/12/3
f 2/13/4 10/14/4 29/15/4 20/16/4
f 8/17/4 4/18/4 22/19/4 26/20/4
f 11/21/5 15/22/5 45/23/5 41/24/5
f 2/13/6 5/2/6 35/25/6 32/26/6
f 8/17/7 10/14/7 40/27/7 38/28/7
f 27/29/8 26/30/8 22/31/8 24/32/8
f 25/33/9 27/29/9 24/32/9 21/34/9
f 28/35/10 30/36/10 27/29/10 25/33/10
f 30/36/11 29/37/11 26/30/11 27/29/11
f 23/38/11 20/39/11 29/37/11 30/36/11
f 19/4/10 23/38/10 30/36/10 28/35/10
f 5/2/1 2/13/1 20/16/1 23/3/1
f 10/14/4 8/17/4 26/20/4 29/15/4
f 4/18/12 6/11/12 24/12/12 22/19/12
f 7/40/2 9/41/2 28/35/2 25/33/2
f 39/42/13 37/43/13 41/44/13 42/45/13
f 42/45/14 41/44/14 45/46/14 46/47/14
f 42/45/14 46/47/14 48/48/14 47/49/14
f 4/18/7 8/17/7 38/28/7 34/50/7
f 18/51/15 17/52/15 47/53/15 48/54/15
f 3/5/16 6/11/16 36/55/16 33/56/16
f 7/6/17 11/21/17 41/24/17 37/57/17
f 17/52/18 12/58/18 42/59/18 47/53/18
f 5/2/6 1/1/6 31/60/6 35/25/6
f 12/58/19 9/9/19 39/61/19 42/59/19
f 7/40/13 13/62/13 14/63/13 9/41/13
f 16/64/20 18/51/20 48/54/20 46/65/20
f 6/11/21 4/18/21 34/50/21 36/55/21
f 11/21/22 13/62/22 43/66/22 41/24/22
f 10/14/7 2/13/7 32/26/7 40/27/7
f 12/58/22 14/63/22 44/67/22 42/59/22
f 7/6/23 3/5/23 33/56/23 37/57/23
f 15/22/24 16/64/24 46/65/24 45/23/24
f 1/1/23 9/9/23 39/61/23 31/60/23
f 36/55/25 34/50/25 52/68/25 54/69/25
f 34/50/26 38/28/26 56/70/26 52/68/26
f 40/27/26 32/26/26 50/71/26 58/72/26
f 37/57/27 33/56/27 51/73/27 55/74/27
f 33/56/28 36/55/28 54/69/28 51/73/28
f 31/60/27 39/61/27 57/75/27 49/76/27
f 38/28/26 40/27/26 58/72/26 56/70/26
f 35/25/29 31/60/29 49/76/29 53/77/29
f 32/26/29 35/25/29 53/77/29 50/71/29
f 39/42/27 37/43/27 55/78/27 57/79/27
f 60/80/30 54/69/30 52/68/30 56/70/30
f 55/78/31 51/73/31 54/69/31 60/80/31
f 53/77/32 59/81/32 58/72/32 50/71/32
f 49/76/33 57/79/33 59/81/33 53/77/33
f 59/81/32 60/80/32 56/70/32 58/72/32
f 57/79/33 55/78/33 60/80/33 59/81/33
f 15/22/34 13/62/34 14/63/34 16/64/34
f 17/52/34 18/51/34 16/64/34 14/63/34
