# Blender v2.91.0 OBJ File: 'Oven.blend'
# www.blender.org
mtllib Breadslice.mtl
o Breadslice.012_Cube.019
v -1.325275 4.506900 -6.296165
v -1.325275 5.053020 -6.330450
v -1.325275 4.506900 -6.812956
v -1.325275 5.053020 -6.777962
v -1.325275 4.983727 -6.763164
v -1.325275 4.985444 -6.341639
v -1.325275 5.023499 -6.824013
v -1.325275 5.022970 -6.284415
v -1.325275 4.914338 -6.815669
v -1.325275 4.915483 -6.301668
v -1.325275 5.033457 -6.815465
v -1.325275 5.034007 -6.290718
v -1.325275 5.015150 -6.818221
v -1.325275 5.014174 -6.287601
v -1.381519 4.515553 -6.846064
v -1.381519 4.515553 -6.265713
v -1.325275 4.521654 -6.284126
v -1.325275 4.522525 -6.827717
v -1.381519 5.053020 -6.777962
v -1.381519 4.506900 -6.296165
v -1.381519 4.983727 -6.763164
v -1.381519 5.023499 -6.824013
v -1.381519 4.914338 -6.815669
v -1.381519 5.033457 -6.815465
v -1.381519 5.015150 -6.818221
v -1.381519 4.506900 -6.812956
v -1.381519 5.053020 -6.330450
v -1.381519 4.978213 -6.316634
v -1.381519 5.024678 -6.264520
v -1.381519 4.915483 -6.301668
v -1.381519 5.047911 -6.277788
v -1.381519 5.001445 -6.272937
v -1.325275 4.515553 -6.846064
v -1.325275 4.488776 -6.820767
v -1.325275 4.488776 -6.287561
v -1.325275 5.071144 -6.782405
v -1.325275 5.071144 -6.326336
v -1.325275 4.515553 -6.265713
v -1.325275 5.001445 -6.830772
v -1.325275 4.978213 -6.790064
v -1.325275 5.001445 -6.272937
v -1.325275 4.978213 -6.316634
v -1.325275 5.047911 -6.826942
v -1.325275 5.024678 -6.846887
v -1.325275 5.047911 -6.277788
v -1.325275 5.024678 -6.264520
v -1.325275 4.920668 -6.833607
v -1.325275 4.920668 -6.283757
v -1.381519 4.920668 -6.283757
v -1.381519 4.521654 -6.284126
v -1.381519 4.920668 -6.833607
v -1.381519 4.522525 -6.827717
v -1.381519 5.071144 -6.326336
v -1.381519 5.034007 -6.290718
v -1.381519 5.071144 -6.782405
v -1.381519 4.985444 -6.341639
v -1.381519 5.022970 -6.284415
v -1.381519 5.014174 -6.287601
v -1.381519 4.488776 -6.287561
v -1.381519 5.001445 -6.830772
v -1.381519 4.978213 -6.790064
v -1.381519 5.047911 -6.826942
v -1.381519 5.024678 -6.846887
v -1.381519 4.488776 -6.820767
v -1.325275 4.488776 -6.554277
v -1.325275 5.085399 -6.554467
v -1.325275 4.984586 -6.552491
v -1.325275 5.023235 -6.554328
v -1.325275 4.914910 -6.558778
v -1.325275 5.033731 -6.553203
v -1.325275 5.014662 -6.553024
v -1.325275 4.522089 -6.556037
v -1.381519 4.522089 -6.556037
v -1.381519 4.984586 -6.552491
v -1.381519 5.023235 -6.554328
v -1.381519 4.914910 -6.558778
v -1.381519 5.033731 -6.553203
v -1.381519 5.014662 -6.553024
v -1.381519 5.085399 -6.554467
v -1.381519 4.488776 -6.554277
v -1.325275 4.506900 -6.554670
v -1.325275 5.067275 -6.554301
v -1.381519 5.067275 -6.554301
v -1.381519 4.506900 -6.554670
v -1.325275 5.081434 -6.440402
v -1.325275 4.985015 -6.447065
v -1.325275 5.023102 -6.419372
v -1.325275 4.915197 -6.430223
v -1.325275 5.033869 -6.421960
v -1.325275 5.014419 -6.420313
v -1.325275 4.521872 -6.420082
v -1.381519 4.521872 -6.420082
v -1.381519 5.081434 -6.440402
v -1.381519 4.488776 -6.420919
v -1.325275 5.063311 -6.442375
v -1.381519 5.063311 -6.442375
v -1.381519 4.506900 -6.425417
v -1.325275 4.488776 -6.420919
v -1.381519 4.985015 -6.447065
v -1.381519 5.023102 -6.419372
v -1.381519 4.915197 -6.430223
v -1.381519 5.033869 -6.421960
v -1.381519 5.014419 -6.420313
v -1.325275 4.506900 -6.425417
v -1.325275 4.488776 -6.687522
v -1.381519 4.984157 -6.657827
v -1.381519 5.023367 -6.689171
v -1.381519 4.914624 -6.687223
v -1.381519 5.033594 -6.684334
v -1.381519 5.014906 -6.685623
v -1.325275 4.506900 -6.683813
v -1.325275 5.081434 -6.668436
v -1.325275 4.984157 -6.657827
v -1.325275 5.023367 -6.689171
v -1.325275 4.914624 -6.687223
v -1.325275 5.033594 -6.684334
v -1.325275 5.014906 -6.685623
v -1.325275 4.522307 -6.691877
v -1.381519 4.522307 -6.691877
v -1.381519 5.081434 -6.668436
v -1.381519 4.488776 -6.687522
v -1.325275 5.063311 -6.666131
v -1.381519 5.063311 -6.666131
v -1.381519 4.506900 -6.683813
vt 0.615027 0.484366
vt 0.625000 0.484366
vt 0.625000 0.500000
vt 0.615027 0.500000
vt 0.608999 0.677966
vt 0.617220 0.677493
vt 0.617220 0.730666
vt 0.609058 0.731674
vt 0.359366 0.687473
vt 0.375000 0.687474
vt 0.375000 0.750000
vt 0.359366 0.750000
vt 0.558055 0.683369
vt 0.588026 0.681843
vt 0.588211 0.738291
vt 0.558178 0.741793
vt 0.560404 0.484366
vt 0.585106 0.484366
vt 0.585106 0.500000
vt 0.560404 0.500000
vt 0.600649 0.683564
vt 0.604377 0.683622
vt 0.604320 0.741701
vt 0.600544 0.741592
vt 0.595080 0.484366
vt 0.605053 0.484366
vt 0.605053 0.500000
vt 0.595080 0.500000
vt 0.386495 0.484366
vt 0.386495 0.500000
vt 0.389207 0.683547
vt 0.389114 0.742144
vt 0.386495 0.750000
vt 0.386495 0.765634
vt 0.375000 0.765634
vt 0.604377 0.690423
vt 0.600649 0.683896
vt 0.600544 0.746849
vt 0.604320 0.755589
vt 0.382780 0.682522
vt 0.382780 0.739764
vt 0.588027 0.683067
vt 0.588211 0.744612
vt 0.557809 0.560590
vt 0.557686 0.495771
vt 0.375688 0.510069
vt 0.378900 0.571285
vt 0.368449 0.510954
vt 0.371878 0.571871
vt 0.609058 0.755381
vt 0.606650 0.690014
vt 0.375000 0.484366
vt 0.375000 0.500000
vt 0.601835 0.559337
vt 0.619757 0.566998
vt 0.620575 0.508044
vt 0.599429 0.494025
vt 0.558055 0.690282
vt 0.558178 0.755155
vt 0.615027 0.750000
vt 0.625000 0.750000
vt 0.625000 0.765634
vt 0.615027 0.765634
vt 0.625000 0.687474
vt 0.640634 0.687473
vt 0.640634 0.750000
vt 0.560404 0.750000
vt 0.585106 0.750000
vt 0.585106 0.765634
vt 0.560404 0.765634
vt 0.595080 0.750000
vt 0.605053 0.750000
vt 0.605053 0.765634
vt 0.595080 0.765634
vt 0.389488 0.507857
vt 0.382780 0.510894
vt 0.617220 0.571191
vt 0.617220 0.518063
vt 0.625000 0.562474
vt 0.600963 0.509580
vt 0.587474 0.512588
vt 0.608822 0.516934
vt 0.604547 0.509482
vt 0.557686 0.508197
vt 0.388538 0.755036
vt 0.371831 0.499031
vt 0.617301 0.743963
vt 0.618120 0.684958
vt 0.628909 0.699198
vt 0.382172 0.754725
vt 0.587474 0.498528
vt 0.600963 0.495145
vt 0.604547 0.495035
vt 0.359366 0.500000
vt 0.363273 0.566380
vt 0.640634 0.500000
vt 0.378740 0.693757
vt 0.375308 0.632788
vt 0.367180 0.632761
vt 0.371090 0.699197
vt 0.618939 0.625953
vt 0.632819 0.632763
vt 0.636726 0.566382
vt 0.617220 0.624319
vt 0.625000 0.624949
vt 0.382780 0.568087
vt 0.382780 0.625280
vt 0.375000 0.624947
vt 0.375000 0.562474
vt 0.640634 0.562473
vt 0.640634 0.624947
vt 0.587658 0.560025
vt 0.557932 0.625408
vt 0.587842 0.621522
vt 0.604241 0.624648
vt 0.604490 0.560146
vt 0.604434 0.625257
vt 0.385325 0.693769
vt 0.382111 0.632501
vt 0.600754 0.620943
vt 0.600858 0.558044
vt 0.389394 0.566404
vt 0.389301 0.624951
vt 0.587658 0.568991
vt 0.600858 0.567559
vt 0.600754 0.625537
vt 0.587842 0.625395
vt 0.604490 0.567513
vt 0.608881 0.570596
vt 0.608940 0.624258
vt 0.604434 0.625543
vt 0.557809 0.566571
vt 0.557932 0.624945
vt 0.359366 0.562473
vt 0.359366 0.624947
vn 0.0000 0.8866 -0.4625
vn 1.0000 -0.0000 0.0000
vn 0.0000 -1.0000 0.0000
vn 0.0000 0.6034 -0.7974
vn 0.0000 -0.5700 -0.8217
vn 0.0000 0.0307 -0.9995
vn 0.0000 0.6514 -0.7588
vn 0.0000 -0.8685 -0.4957
vn 0.0000 -0.6322 0.7748
vn -1.0000 -0.0000 0.0000
vn 0.0000 -0.6867 -0.7269
vn 0.0000 0.9020 0.4317
vn 0.0000 0.9960 0.0899
vn 0.0000 0.4961 0.8683
vn 0.0000 -0.3406 0.9402
vn 0.0000 0.0445 0.9990
vn 0.0000 0.4959 0.8684
vn 0.0000 -0.8830 0.4694
vn 0.0000 0.9994 -0.0348
vn 0.0000 0.9994 0.0347
vn 0.0000 0.9959 -0.0899
usemtl None
s off
f 62/1/1 55/2/1 36/3/1 43/4/1
f 89/5/2 95/6/2 2/7/2 12/8/2
f 94/9/3 98/10/3 35/11/3 59/12/3
f 88/13/2 86/14/2 6/15/2 10/16/2
f 51/17/4 61/18/4 40/19/4 47/20/4
f 90/21/2 87/22/2 8/23/2 14/24/2
f 60/25/5 63/26/5 44/27/5 39/28/5
f 15/29/6 51/17/6 47/20/6 33/30/6
f 91/31/2 88/13/2 10/16/2 17/32/2
f 87/22/2 89/5/2 12/8/2 8/23/2
f 63/26/7 62/1/7 43/4/7 44/27/7
f 61/18/8 60/25/8 39/28/8 40/19/8
f 86/14/2 90/21/2 14/24/2 6/15/2
f 35/11/9 38/33/9 16/34/9 59/35/9
f 100/36/10 103/37/10 58/38/10 57/39/10
f 104/40/2 91/31/2 17/32/2 1/41/2
f 99/42/10 56/43/10 58/38/10 103/37/10
f 108/44/10 23/45/10 52/46/10 119/47/10
f 119/47/10 52/46/10 26/48/10 124/49/10
f 100/36/10 57/39/10 54/50/10 102/51/10
f 64/52/11 15/29/11 33/30/11 34/53/11
f 109/54/10 123/55/10 19/56/10 24/57/10
f 99/42/10 101/58/10 30/59/10 56/43/10
f 45/60/12 37/61/12 53/62/12 31/63/12
f 85/64/13 93/65/13 53/66/13 37/61/13
f 48/67/14 42/68/14 28/69/14 49/70/14
f 41/71/15 46/72/15 29/73/15 32/74/15
f 38/33/16 48/67/16 49/70/16 16/34/16
f 46/72/17 45/60/17 31/63/17 29/73/17
f 42/68/18 41/71/18 32/74/18 28/69/18
f 18/75/2 3/76/2 34/53/2 33/30/2
f 104/40/2 1/41/2 35/11/2 98/10/2
f 122/77/2 4/78/2 36/3/2 112/79/2
f 1/41/2 17/32/2 38/33/2 35/11/2
f 13/80/2 5/81/2 40/19/2 39/28/2
f 6/15/2 14/24/2 41/71/2 42/68/2
f 11/82/2 7/83/2 44/27/2 43/4/2
f 8/23/2 12/8/2 45/60/2 46/72/2
f 5/81/2 9/84/2 47/20/2 40/19/2
f 10/16/2 6/15/2 42/68/2 48/67/2
f 4/78/2 11/82/2 43/4/2 36/3/2
f 12/8/2 2/7/2 37/61/2 45/60/2
f 7/83/2 13/80/2 39/28/2 44/27/2
f 14/24/2 8/23/2 46/72/2 41/71/2
f 30/59/10 50/85/10 16/34/10 49/70/10
f 9/84/2 18/75/2 33/30/2 47/20/2
f 17/32/2 10/16/2 48/67/2 38/33/2
f 52/46/10 23/45/10 51/17/10 15/86/10
f 27/87/10 54/50/10 31/63/10 53/62/10
f 96/88/10 27/87/10 53/62/10 93/89/10
f 56/43/10 30/59/10 49/70/10 28/69/10
f 57/39/10 58/38/10 32/74/10 29/73/10
f 50/85/10 20/90/10 59/35/10 16/34/10
f 54/50/10 57/39/10 29/73/10 31/63/10
f 58/38/10 56/43/10 28/69/10 32/74/10
f 21/91/10 25/92/10 60/25/10 61/18/10
f 22/93/10 24/57/10 62/1/10 63/26/10
f 26/48/10 52/46/10 15/86/10 64/94/10
f 25/92/10 22/93/10 63/26/10 60/25/10
f 23/45/10 21/91/10 61/18/10 51/17/10
f 124/49/10 26/48/10 64/94/10 121/95/10
f 24/57/10 19/56/10 55/96/10 62/1/10
f 97/97/10 84/98/10 80/99/10 94/100/10
f 123/55/10 83/101/10 79/102/10 120/103/10
f 95/6/2 82/104/2 66/105/2 85/64/2
f 111/106/2 81/107/2 65/108/2 105/109/2
f 112/79/19 120/110/19 79/111/19 66/105/19
f 106/112/10 108/44/10 76/113/10 74/114/10
f 102/51/10 96/88/10 83/101/10 77/115/10
f 107/116/10 75/117/10 77/115/10 109/54/10
f 92/118/10 73/119/10 84/98/10 97/97/10
f 101/58/10 76/113/10 73/119/10 92/118/10
f 106/112/10 74/114/10 78/120/10 110/121/10
f 111/106/2 118/122/2 72/123/2 81/107/2
f 107/116/10 110/121/10 78/120/10 75/117/10
f 113/124/2 117/125/2 71/126/2 67/127/2
f 114/128/2 116/129/2 70/130/2 68/131/2
f 118/122/2 115/132/2 69/133/2 72/123/2
f 117/125/2 114/128/2 68/131/2 71/126/2
f 115/132/2 113/124/2 67/127/2 69/133/2
f 121/134/3 105/109/3 65/108/3 80/135/3
f 116/129/2 122/77/2 82/104/2 70/130/2
f 30/59/10 101/58/10 92/118/10 50/85/10
f 50/85/10 92/118/10 97/97/10 20/90/10
f 54/50/10 27/87/10 96/88/10 102/51/10
f 2/7/2 95/6/2 85/64/2 37/61/2
f 20/90/10 97/97/10 94/100/10 59/35/10
f 83/101/10 96/88/10 93/89/10 79/102/10
f 81/107/2 104/40/2 98/10/2 65/108/2
f 66/105/20 79/111/20 93/65/20 85/64/20
f 74/114/10 76/113/10 101/58/10 99/42/10
f 75/117/10 100/36/10 102/51/10 77/115/10
f 74/114/10 99/42/10 103/37/10 78/120/10
f 81/107/2 72/123/2 91/31/2 104/40/2
f 75/117/10 78/120/10 103/37/10 100/36/10
f 67/127/2 71/126/2 90/21/2 86/14/2
f 68/131/2 70/130/2 89/5/2 87/22/2
f 72/123/2 69/133/2 88/13/2 91/31/2
f 71/126/2 68/131/2 87/22/2 90/21/2
f 69/133/2 67/127/2 86/14/2 88/13/2
f 80/135/3 65/108/3 98/10/3 94/9/3
f 70/130/2 82/104/2 95/6/2 89/5/2
f 11/82/2 4/78/2 122/77/2 116/129/2
f 64/94/3 34/53/3 105/109/3 121/134/3
f 9/84/2 5/81/2 113/124/2 115/132/2
f 13/80/2 7/83/2 114/128/2 117/125/2
f 18/75/2 9/84/2 115/132/2 118/122/2
f 7/83/2 11/82/2 116/129/2 114/128/2
f 5/81/2 13/80/2 117/125/2 113/124/2
f 22/93/10 25/92/10 110/121/10 107/116/10
f 3/76/2 18/75/2 118/122/2 111/106/2
f 21/91/10 106/112/10 110/121/10 25/92/10
f 22/93/10 107/116/10 109/54/10 24/57/10
f 21/91/10 23/45/10 108/44/10 106/112/10
f 36/3/21 55/96/21 120/110/21 112/79/21
f 3/76/2 111/106/2 105/109/2 34/53/2
f 19/56/10 123/55/10 120/103/10 55/96/10
f 84/98/10 124/49/10 121/95/10 80/99/10
f 82/104/2 122/77/2 112/79/2 66/105/2
f 77/115/10 83/101/10 123/55/10 109/54/10
f 73/119/10 119/47/10 124/49/10 84/98/10
f 76/113/10 108/44/10 119/47/10 73/119/10
