# Blender v2.91.0 OBJ File: 'Oven.blend'
# www.blender.org
mtllib Breadbox.mtl
o Breadbox_Cube.021
v -1.294085 4.897924 -6.905291
v -1.253129 4.394681 -6.959482
v -1.294085 4.897924 -6.231514
v -1.253129 4.394681 -6.177323
v -2.214253 4.897924 -6.905291
v -2.255209 4.394681 -6.959482
v -2.214253 4.897924 -6.231514
v -2.255209 4.394681 -6.177323
v -1.253129 4.897924 -6.177323
v -1.253129 4.897924 -6.959482
v -2.255209 4.897924 -6.177323
v -2.255209 4.897924 -6.959482
v -1.294085 4.523902 -6.905291
v -1.294085 4.523902 -6.231514
v -2.214253 4.523902 -6.905291
v -2.214253 4.523902 -6.231514
vt 0.375000 0.000000
vt 0.375000 0.250000
vt 0.625000 0.250000
vt 0.625000 0.000000
vt 0.375000 0.500000
vt 0.625000 0.500000
vt 0.375000 0.750000
vt 0.625000 0.750000
vt 0.375000 1.000000
vt 0.625000 1.000000
vt 0.364782 0.517321
vt 0.364782 0.517321
vt 0.364782 0.732679
vt 0.364782 0.732679
vt 0.875000 0.750000
vt 0.875000 0.500000
vt 0.135218 0.517321
vt 0.125000 0.500000
vt 0.125000 0.750000
vt 0.135218 0.732679
vt 0.135218 0.517321
vt 0.135218 0.732679
vn 1.0000 0.0000 0.0000
vn 0.0000 0.0000 1.0000
vn -1.0000 0.0000 0.0000
vn 0.0000 0.0000 -1.0000
vn 0.0000 -1.0000 0.0000
vn 0.0000 1.0000 0.0000
usemtl None
s off
f 10/1/1 9/2/1 4/3/1 2/4/1
f 9/2/2 11/5/2 8/6/2 4/3/2
f 11/5/3 12/7/3 6/8/3 8/6/3
f 12/7/4 10/9/4 2/10/4 6/8/4
f 7/11/1 16/12/1 15/13/1 5/14/1
f 8/6/5 6/8/5 2/15/5 4/16/5
f 3/17/6 9/18/6 10/19/6 1/20/6
f 7/11/6 11/5/6 9/18/6 3/17/6
f 5/14/6 12/7/6 11/5/6 7/11/6
f 1/20/6 10/19/6 12/7/6 5/14/6
f 14/21/6 13/22/6 15/13/6 16/12/6
f 1/20/3 13/22/3 14/21/3 3/17/3
f 5/14/2 15/13/2 13/22/2 1/20/2
f 3/17/4 14/21/4 16/12/4 7/11/4
