# Blender v2.91.0 OBJ File: 'Objects.blend'
# www.blender.org
mtllib Key.mtl
o Cube_Cube.001
v 0.241634 -0.372094 -0.811285
v 0.233311 0.188113 -0.778119
v 0.343030 -0.091694 -1.215344
v 0.343030 -0.010219 -1.215344
v 0.274781 -0.378933 -0.943377
v 0.289763 0.188113 -1.003078
v 0.334707 0.017137 -1.182178
v 0.331378 -0.132728 -1.168911
v 0.211671 -0.242153 -0.691885
v 0.203348 0.188113 -0.658719
v 0.180044 -0.242153 -0.565851
v 0.171721 0.188113 -0.532685
v 0.156739 -0.351577 -0.472985
v 0.148416 0.188113 -0.439817
v 0.118453 -0.351577 -0.320417
v 0.110130 0.188113 -0.287250
v 0.101807 -0.201118 -0.254083
v 0.093484 0.181274 -0.220917
v 0.053534 -0.201118 -0.061716
v 0.045211 0.181274 -0.028549
v 0.046875 -0.262670 -0.035183
v 0.038552 0.181274 -0.002016
v 0.003596 -0.262670 0.137285
v -0.004727 0.181274 0.170452
v -0.016380 -0.180602 0.216885
v -0.024703 0.188113 0.250052
v -0.046342 -0.180602 0.336286
v -0.054665 0.188113 0.369453
v -0.087958 -0.399450 0.502120
v -0.096280 0.188113 0.535287
v -0.212803 -0.392612 0.999622
v -0.216132 0.201790 1.012888
v -0.360952 -0.830309 1.589990
v -0.364281 0.618972 1.603258
v -0.492456 -0.454163 2.114027
v -0.495785 0.215469 2.127293
v -0.361519 -0.525301 1.592248
v -0.274125 -0.267102 1.243987
v -0.276005 0.068531 1.251479
v -0.362768 0.312852 1.597227
v -0.432496 -0.322282 1.875088
v -0.434558 0.092572 1.883308
v 0.157146 -0.372094 -0.832487
v 0.148823 0.188113 -0.799321
v 0.258542 -0.091694 -1.236546
v 0.258542 -0.010219 -1.236546
v 0.190294 -0.378933 -0.964579
v 0.205275 0.188113 -1.024279
v 0.250219 0.017137 -1.203379
v 0.246890 -0.132728 -1.190113
v 0.127183 -0.242153 -0.713087
v 0.118860 0.188113 -0.679921
v 0.095556 -0.242153 -0.587053
v 0.087233 0.188113 -0.553886
v 0.072251 -0.351577 -0.494186
v 0.063928 0.188113 -0.461019
v 0.033965 -0.351577 -0.341619
v 0.025643 0.188113 -0.308452
v 0.017319 -0.201118 -0.275285
v 0.008996 0.181274 -0.242118
v -0.030954 -0.201118 -0.082917
v -0.039277 0.181274 -0.049751
v -0.037612 -0.262670 -0.056384
v -0.045935 0.181274 -0.023217
v -0.080892 -0.262670 0.116083
v -0.089215 0.181274 0.149250
v -0.100867 -0.180602 0.195684
v -0.109190 0.188113 0.228851
v -0.130830 -0.180602 0.315084
v -0.139153 0.188113 0.348251
v -0.172445 -0.399450 0.480918
v -0.180768 0.188113 0.514085
v -0.297291 -0.392612 0.978420
v -0.300620 0.201790 0.991687
v -0.445440 -0.830309 1.568789
v -0.448769 0.618972 1.582056
v -0.576944 -0.454163 2.092825
v -0.580273 0.215469 2.106091
v -0.446007 -0.525301 1.571047
v -0.358612 -0.267102 1.222785
v -0.360492 0.068531 1.230277
v -0.447256 0.312852 1.576025
v -0.516984 -0.322282 1.853887
v -0.519046 0.092572 1.862106
v 0.211671 -0.242153 -0.691885
v 0.241634 -0.372094 -0.811285
v 0.343030 -0.010219 -1.215344
v 0.334707 0.017137 -1.182178
v 0.331378 -0.132728 -1.168911
v 0.343030 -0.091694 -1.215344
v 0.274781 -0.378933 -0.943377
v 0.289763 0.188113 -1.003078
v 0.233311 0.188113 -0.778119
v 0.203348 0.188113 -0.658719
v 0.180044 -0.242153 -0.565851
v 0.171721 0.188113 -0.532685
v 0.156739 -0.351577 -0.472985
v 0.148416 0.188113 -0.439817
v 0.118453 -0.351577 -0.320417
v 0.110130 0.188113 -0.287250
v 0.101807 -0.201118 -0.254083
v 0.093484 0.181274 -0.220917
v 0.053534 -0.201118 -0.061716
v 0.045211 0.181274 -0.028549
v 0.046875 -0.262670 -0.035183
v 0.038552 0.181274 -0.002016
v 0.003596 -0.262670 0.137285
v -0.004727 0.181274 0.170452
v -0.016380 -0.180602 0.216885
v -0.024703 0.188113 0.250052
v -0.046342 -0.180602 0.336286
v -0.054665 0.188113 0.369453
v -0.087958 -0.399450 0.502120
v -0.096280 0.188113 0.535287
v -0.212803 -0.392612 0.999622
v -0.216132 0.201790 1.012888
v 0.234601 0.101293 -0.783259
v 0.204638 0.121431 -0.663859
v 0.343030 -0.022846 -1.215344
v 0.334191 -0.006089 -1.180122
v 0.287441 0.100234 -0.993825
v 0.173010 0.121431 -0.537825
v 0.149706 0.127130 -0.444957
v 0.111420 0.127294 -0.292390
v 0.094774 0.122012 -0.226057
v 0.046501 0.122012 -0.033689
v 0.039842 0.127638 -0.007156
v -0.003437 0.129616 0.165312
v -0.023413 0.130970 0.244912
v -0.053376 0.130970 0.364313
v -0.094991 0.129336 0.530147
v -0.215616 0.109672 1.010833
v -0.362574 0.182957 1.596455
v -0.275713 0.016515 1.250318
v 0.150113 0.101293 -0.804461
v 0.120150 0.121431 -0.685061
v 0.258542 -0.022846 -1.236546
v 0.249703 -0.006089 -1.201323
v 0.202953 0.100234 -1.015027
v 0.088523 0.121431 -0.559026
v 0.065218 0.130625 -0.466159
v 0.026932 0.127010 -0.313592
v 0.010286 0.122012 -0.247258
v -0.037987 0.122012 -0.054891
v -0.044646 0.127240 -0.028357
v -0.087925 0.131708 0.144110
v -0.107901 0.130970 0.223710
v -0.137863 0.130970 0.343111
v -0.179478 0.134061 0.508945
v -0.300104 0.109672 0.989631
v -0.447062 0.182957 1.575253
v -0.360201 0.016515 1.229116
v 0.343030 -0.022846 -1.215344
v -0.215616 0.109672 1.010833
v 0.343030 -0.045208 -1.215344
v 0.333277 -0.047223 -1.176480
v 0.283329 -0.055406 -0.977439
v 0.258542 -0.045208 -1.236546
v 0.248789 -0.047223 -1.197682
v 0.198841 -0.055406 -0.998641
v 0.343030 -0.045208 -1.215344
v 0.236885 -0.052468 -0.792362
v 0.206922 0.003335 -0.672962
v 0.174387 0.097154 -0.543311
v 0.151990 0.059955 -0.454061
v 0.113705 0.014764 -0.301494
v 0.097059 0.017056 -0.235160
v 0.048785 0.036358 -0.042792
v 0.042127 0.038953 -0.016259
v -0.001153 0.037000 0.156208
v -0.021128 0.029768 0.235809
v -0.051091 0.029768 0.355209
v -0.092706 0.025533 0.521043
v -0.214702 -0.053476 1.007192
v -0.362232 -0.047093 1.595089
v -0.275197 -0.075607 1.248262
v 0.152397 -0.052468 -0.813564
v 0.122435 0.003335 -0.694164
v 0.090807 0.092609 -0.568130
v 0.067503 0.050959 -0.475263
v 0.029217 0.016232 -0.322695
v 0.012571 0.017056 -0.256362
v -0.035703 0.027690 -0.063994
v -0.042361 0.031082 -0.037461
v -0.085641 0.036647 0.135006
v -0.105616 0.029768 0.214607
v -0.135579 0.029768 0.334007
v -0.177194 0.027883 0.499842
v -0.299190 -0.053476 0.985990
v -0.446719 -0.047093 1.573887
v -0.359685 -0.075607 1.227060
v -0.214702 -0.053476 1.007192
v 0.026245 0.122012 -0.038772
v 0.074518 0.122012 -0.231140
v 0.091164 0.127226 -0.297473
v 0.129450 0.127967 -0.450040
v 0.152755 0.121431 -0.542908
v 0.154349 0.096064 -0.549261
v 0.131735 0.057798 -0.459144
v 0.093449 0.015116 -0.306577
v 0.076803 0.017056 -0.240243
v 0.028529 0.034280 -0.047875
v 0.021871 0.037066 -0.021342
v -0.021409 0.036916 0.151125
v -0.041384 0.029768 0.230725
v -0.071347 0.029768 0.350126
v -0.115246 0.130468 0.525064
v -0.112962 0.026096 0.515960
v 0.019586 0.127543 -0.012239
v -0.023693 0.130118 0.160229
v -0.043668 0.130970 0.239829
v -0.073631 0.130970 0.359230
v 0.029367 0.122012 -0.242470
v 0.107603 0.121431 -0.554238
v 0.109683 0.093636 -0.562525
v 0.086583 0.052990 -0.470474
v 0.048297 0.015900 -0.317907
v 0.031651 0.017056 -0.251574
v -0.016622 0.029647 -0.059206
v -0.023281 0.032860 -0.032673
v -0.066560 0.036727 0.139795
v -0.086536 0.029768 0.219395
v -0.116498 0.029768 0.338796
v -0.160398 0.132994 0.513733
v -0.158114 0.027352 0.504630
v -0.018907 0.122012 -0.050103
v 0.046013 0.127074 -0.308804
v 0.084299 0.129836 -0.461371
v -0.025565 0.127330 -0.023569
v -0.068845 0.131236 0.148898
v -0.088820 0.130970 0.228499
v -0.118783 0.130970 0.347899
vt 0.586256 1.000000
vt 0.625000 1.000000
vt 0.625000 1.000000
vt 0.586256 1.000000
vt 0.586256 1.000000
vt 0.625000 1.000000
vt 0.517637 0.750000
vt 0.375000 0.750000
vt 0.375000 0.750000
vt 0.517637 0.750000
vt 0.586256 0.750000
vt 0.625000 0.750000
vt 0.625000 1.000000
vt 0.586256 1.000000
vt 0.375000 0.750000
vt 0.517637 0.750000
vt 0.625000 1.000000
vt 0.586256 1.000000
vt 0.625000 1.000000
vt 0.586256 1.000000
vt 0.625000 1.000000
vt 0.586256 1.000000
vt 0.625000 1.000000
vt 0.586256 1.000000
vt 0.625000 1.000000
vt 0.586256 1.000000
vt 0.625000 1.000000
vt 0.586256 1.000000
vt 0.625000 1.000000
vt 0.586256 1.000000
vt 0.625000 1.000000
vt 0.586256 1.000000
vt 0.625000 1.000000
vt 0.586256 1.000000
vt 0.533749 1.000000
vt 0.548920 1.000000
vt 0.571945 1.000000
vt 0.549583 1.000000
vt 0.506880 1.000000
vt 0.451029 1.000000
vt 0.375000 1.000000
vt 0.517637 1.000000
vt 0.427650 1.000000
vt 0.375000 1.000000
vt 0.625000 1.000000
vt 0.625000 1.000000
vt 0.445395 1.000000
vt 0.554246 1.000000
vt 0.625000 1.000000
vt 0.375000 1.000000
vt 0.586256 1.000000
vt 0.586256 1.000000
vt 0.625000 1.000000
vt 0.625000 1.000000
vt 0.586255 1.000000
vt 0.625000 1.000000
vt 0.517637 0.750000
vt 0.517637 0.750000
vt 0.375000 0.750000
vt 0.375000 0.750000
vt 0.586256 0.750000
vt 0.625000 0.750000
vt 0.586256 1.000000
vt 0.625000 1.000000
vt 0.517637 0.750000
vt 0.375000 0.750000
vt 0.586256 1.000000
vt 0.625000 1.000000
vt 0.586256 1.000000
vt 0.625000 1.000000
vt 0.586256 1.000000
vt 0.625000 1.000000
vt 0.586256 1.000000
vt 0.625000 1.000000
vt 0.586256 1.000000
vt 0.625000 1.000000
vt 0.586256 1.000000
vt 0.625000 1.000000
vt 0.586256 1.000000
vt 0.625000 1.000000
vt 0.586256 1.000000
vt 0.625000 1.000000
vt 0.586256 1.000000
vt 0.625000 1.000000
vt 0.533749 1.000000
vt 0.549583 1.000000
vt 0.571945 1.000000
vt 0.548920 1.000000
vt 0.506880 1.000000
vt 0.517637 1.000000
vt 0.375000 1.000000
vt 0.451029 1.000000
vt 0.375000 1.000000
vt 0.427650 1.000000
vt 0.625000 1.000000
vt 0.445395 1.000000
vt 0.375000 1.000000
vt 0.625000 1.000000
vt 0.554246 1.000000
vt 0.625000 1.000000
vt 0.625000 1.000000
vt 0.625000 1.000000
vt 0.625000 1.000000
vt 0.375000 1.000000
vt 0.375000 1.000000
vt 0.375000 1.000000
vt 0.375000 1.000000
vt 0.375000 1.000000
vt 0.375000 1.000000
vt 0.375000 1.000000
vt 0.375000 1.000000
vt 0.625000 1.000000
vt 0.625000 1.000000
vt 0.375000 1.000000
vt 0.375000 1.000000
vt 0.375000 1.000000
vt 0.375000 1.000000
vt 0.375000 1.000000
vt 0.375000 1.000000
vt 0.625000 1.000000
vt 0.625000 1.000000
vt 0.625000 0.750000
vt 0.625000 0.750000
vt 0.625000 0.750000
vt 0.625000 0.750000
vt 0.375000 1.000000
vt 0.375000 1.000000
vt 0.625000 1.000000
vt 0.375000 1.000000
vt 0.375000 1.000000
vt 0.375000 0.750000
vt 0.375000 0.750000
vt 0.625000 1.000000
vt 0.586256 0.750000
vt 0.586256 0.750000
vt 0.375000 1.000000
vt 0.375000 1.000000
vt 0.509978 1.000000
vt 0.509978 1.000000
vt 0.375000 0.750000
vt 0.625000 1.000000
vt 0.375000 1.000000
vt 0.375000 1.000000
vt 0.625000 0.750000
vt 0.625000 1.000000
vt 0.375000 1.000000
vt 0.375000 1.000000
vt 0.375000 1.000000
vt 0.375000 1.000000
vt 0.625000 0.750000
vt 0.625000 0.750000
vt 0.586256 0.750000
vt 0.375000 1.000000
vt 0.375000 1.000000
vt 0.375000 1.000000
vt 0.375000 1.000000
vt 0.375000 1.000000
vt 0.375000 1.000000
vt 0.375000 1.000000
vt 0.375000 1.000000
vt 0.375000 1.000000
vt 0.375000 1.000000
vt 0.517637 1.000000
vt 0.375000 1.000000
vt 0.586256 1.000000
vt 0.517637 0.750000
vt 0.517637 1.000000
vt 0.517637 1.000000
vt 0.517637 1.000000
vt 0.517637 1.000000
vt 0.517637 1.000000
vt 0.517637 1.000000
vt 0.517637 1.000000
vt 0.517637 1.000000
vt 0.517637 1.000000
vt 0.517637 1.000000
vt 0.517637 1.000000
vt 0.517637 1.000000
vt 0.517637 1.000000
vt 0.517638 1.000000
vt 0.517638 1.000000
vt 0.517638 1.000000
vt 0.517638 1.000000
vt 0.517637 1.000000
vt 0.517637 1.000000
vt 0.586256 0.750000
vt 0.586256 1.000000
vt 0.517637 1.000000
vt 0.517637 1.000000
vt 0.517637 1.000000
vt 0.517637 1.000000
vt 0.586256 1.000000
vt 0.586256 1.000000
vt 0.586256 1.000000
vt 0.586256 1.000000
vt 0.586256 1.000000
vt 0.586256 1.000000
vt 0.586256 1.000000
vt 0.586256 1.000000
vt 0.586256 1.000000
vt 0.586256 1.000000
vt 0.586256 1.000000
vt 0.586256 1.000000
vt 0.586256 1.000000
vt 0.517637 1.000000
vt 0.586256 0.750000
vt 0.517637 1.000000
vt 0.517637 1.000000
vt 0.517637 1.000000
vt 0.517637 1.000000
vt 0.517637 1.000000
vt 0.517637 1.000000
vt 0.517637 1.000000
vt 0.517637 1.000000
vt 0.517637 1.000000
vt 0.517637 1.000000
vt 0.517638 1.000000
vt 0.517638 1.000000
vt 0.586256 1.000000
vt 0.586256 1.000000
vt 0.586256 1.000000
vt 0.586256 1.000000
vt 0.517637 1.000000
vt 0.517637 1.000000
vt 0.517637 1.000000
vt 0.517637 1.000000
vt 0.517637 1.000000
vt 0.517637 1.000000
vt 0.517638 1.000000
vt 0.517638 1.000000
vt 0.586256 1.000000
vt 0.586256 1.000000
vn 0.9699 0.0000 0.2434
vn -0.9699 -0.0000 -0.2434
vn 0.0000 1.0000 0.0000
vn 0.0000 -1.0000 -0.0000
vn 0.1421 -0.8119 -0.5663
vn -0.1767 -0.6877 0.7041
vn 0.1376 0.8249 -0.5483
vn 0.1918 -0.6156 -0.7643
vn -0.2433 -0.0204 0.9697
vn 0.1521 0.7809 -0.6059
vn 0.2224 -0.4061 -0.8863
vn -0.1391 -0.8207 0.5542
vn -0.1456 0.8012 0.5804
vn 0.1832 -0.6585 -0.7299
vn -0.0032 -0.9999 0.0129
vn 0.1584 -0.7593 -0.6312
vn 0.0068 0.9996 -0.0269
vn 0.2434 0.0000 -0.9699
vn -0.2434 -0.0061 0.9699
vn 0.1770 -0.6866 -0.7052
vn 0.1654 0.7338 -0.6590
vn -0.1721 -0.7071 0.6858
vn 0.2433 0.0204 -0.9697
vn 0.0202 0.9965 -0.0805
vn -0.2216 -0.4138 0.8830
vn 0.1391 0.8207 -0.5542
vn -0.0122 -0.9987 0.0486
vn -0.0242 0.9950 0.0965
vn 0.1456 -0.8012 -0.5804
vn 0.0000 0.0000 1.0000
vn -0.1058 0.9623 0.2506
vn 0.0157 0.9995 -0.0279
vn -0.0257 0.9946 -0.1009
vn -0.0675 0.9908 -0.1174
vn -0.0472 0.9989 -0.0057
vn -0.0232 0.9962 0.0842
vn 0.0075 0.9996 0.0257
vn 0.2459 0.0883 -0.9653
vn -0.0149 -0.9998 0.0101
vn -0.0125 -0.9999 0.0100
vn -0.0439 -0.9819 0.1841
vn 0.0194 -0.9973 -0.0708
vn -0.0130 -0.9996 -0.0241
vn -0.0349 -0.9978 0.0570
vn -0.2442 -0.3019 0.9215
vn -0.1691 0.9229 0.3459
vn -0.0299 -0.9995 0.0079
vn -0.0248 -0.9996 -0.0127
vn -0.2505 -0.2387 0.9382
vn -0.0174 -0.9998 -0.0063
vn 0.0202 -0.9971 -0.0738
vn -0.0465 -0.9798 0.1944
vn 0.2459 0.0898 -0.9651
vn -0.0949 0.9741 0.2054
vn 0.0117 0.9999 -0.0120
vn -0.0339 0.9971 -0.0687
vn -0.0620 0.9884 -0.1386
vn -0.0393 0.9985 -0.0372
vn -0.0224 0.9965 0.0810
vn 0.0100 0.9998 0.0155
vn -0.0102 -0.9999 -0.0088
vn -0.0152 -0.9997 0.0205
vn -0.0417 -0.9956 0.0839
vn -0.1733 0.9152 0.3638
usemtl None
s off
f 118/1/1 94/2/1 96/3/1 122/4/1
f 117/5/1 93/6/1 94/2/1 118/1/1
f 157/7/1 5/8/1 8/9/1 156/10/1
f 121/11/1 6/12/1 93/6/1 117/5/1
f 122/4/1 96/3/1 98/13/1 123/14/1
f 156/10/1 8/9/1 3/15/1 161/16/1
f 123/14/1 98/13/1 100/17/1 124/18/1
f 124/18/1 100/17/1 102/19/1 125/20/1
f 125/20/1 102/19/1 104/21/1 126/22/1
f 126/22/1 104/21/1 106/23/1 127/24/1
f 127/24/1 106/23/1 108/25/1 128/26/1
f 128/26/1 108/25/1 110/27/1 129/28/1
f 129/28/1 110/27/1 112/29/1 130/30/1
f 130/30/1 112/29/1 114/31/1 131/32/1
f 131/32/1 114/31/1 32/33/1 154/34/1
f 134/35/1 39/36/1 40/37/1 133/38/1
f 176/39/1 38/40/1 115/41/1 174/42/1
f 38/40/1 37/43/1 33/44/1 115/41/1
f 40/37/1 39/36/1 116/45/1 34/46/1
f 41/47/1 42/48/1 36/49/1 35/50/1
f 37/43/1 41/47/1 35/50/1 33/44/1
f 42/48/1 40/37/1 34/46/1 36/49/1
f 136/51/2 140/52/2 54/53/2 52/54/2
f 135/55/2 136/51/2 52/54/2 44/56/2
f 160/57/2 159/58/2 50/59/2 47/60/2
f 139/61/2 135/55/2 44/56/2 48/62/2
f 140/52/2 141/63/2 56/64/2 54/53/2
f 159/58/2 158/65/2 45/66/2 50/59/2
f 141/63/2 142/67/2 58/68/2 56/64/2
f 142/67/2 143/69/2 60/70/2 58/68/2
f 143/69/2 144/71/2 62/72/2 60/70/2
f 144/71/2 145/73/2 64/74/2 62/72/2
f 145/73/2 146/75/2 66/76/2 64/74/2
f 146/75/2 147/77/2 68/78/2 66/76/2
f 147/77/2 148/79/2 70/80/2 68/78/2
f 148/79/2 149/81/2 72/82/2 70/80/2
f 149/81/2 150/83/2 74/84/2 72/82/2
f 152/85/2 151/86/2 82/87/2 81/88/2
f 191/89/2 189/90/2 73/91/2 80/92/2
f 80/92/2 73/91/2 75/93/2 79/94/2
f 82/87/2 76/95/2 74/84/2 81/88/2
f 83/96/2 77/97/2 78/98/2 84/99/2
f 79/94/2 75/93/2 77/97/2 83/96/2
f 84/99/2 78/98/2 76/95/2 82/87/2
f 2/100/3 44/56/3 52/54/3 10/101/3
f 26/102/3 68/78/3 70/80/3 28/103/3
f 19/104/4 61/105/4 59/106/4 17/107/4
f 33/44/5 75/93/5 73/91/5 115/41/5
f 85/108/6 51/109/6 43/110/6 86/111/6
f 18/112/3 60/70/3 62/72/3 20/113/3
f 116/45/7 74/84/7 76/95/7 34/46/7
f 11/114/4 53/115/4 51/109/4 85/108/4
f 29/116/8 71/117/8 69/118/8 27/119/8
f 36/49/9 78/98/9 77/97/9 35/50/9
f 10/101/3 52/54/3 54/53/3 12/120/3
f 28/103/3 70/80/3 72/82/3 30/121/3
f 87/122/10 46/123/10 49/124/10 88/125/10
f 21/126/11 63/127/11 61/105/11 19/104/11
f 35/50/12 77/97/12 75/93/12 33/44/12
f 20/113/3 62/72/3 64/74/3 22/128/3
f 34/46/13 76/95/13 78/98/13 36/49/13
f 13/129/14 55/130/14 53/115/14 11/114/14
f 115/41/15 73/91/15 71/117/15 29/116/15
f 89/131/16 50/59/16 45/66/16 90/132/16
f 12/120/3 54/53/3 56/64/3 14/133/3
f 30/121/17 72/82/17 74/84/17 116/45/17
f 119/134/18 137/135/18 46/123/18 87/122/18
f 23/136/4 65/137/4 63/127/4 21/126/4
f 175/138/19 190/139/19 79/94/19 37/43/19
f 91/140/20 47/60/20 50/59/20 89/131/20
f 22/128/3 64/74/3 66/76/3 24/141/3
f 15/142/4 57/143/4 55/130/4 13/129/4
f 88/125/21 49/124/21 48/62/21 92/144/21
f 14/133/3 56/64/3 58/68/3 16/145/3
f 25/146/22 67/147/22 65/137/22 23/136/22
f 41/47/23 83/96/23 84/99/23 42/48/23
f 24/141/24 66/76/24 68/78/24 26/102/24
f 17/107/25 59/106/25 57/143/25 15/142/25
f 37/43/26 79/94/26 83/96/26 41/47/26
f 86/111/27 43/110/27 47/60/27 91/140/27
f 16/145/28 58/68/28 60/70/28 18/112/28
f 42/48/29 84/99/29 82/87/29 40/37/29
f 92/144/3 48/62/3 44/56/3 2/100/3
f 27/119/4 69/118/4 67/147/4 25/146/4
f 9/148/30 85/108/30 86/111/30 1/149/30
f 4/150/30 87/122/30 88/125/30 7/151/30
f 8/9/30 89/131/30 90/132/30 3/15/30
f 153/152/30 119/134/30 87/122/30 4/150/30
f 5/8/30 91/140/30 89/131/30 8/9/30
f 7/151/30 88/125/30 92/144/30 6/12/30
f 1/149/30 86/111/30 91/140/30 5/8/30
f 6/12/30 92/144/30 2/100/30 93/6/30
f 93/6/30 2/100/30 10/101/30 94/2/30
f 95/153/30 11/114/30 85/108/30 9/148/30
f 94/2/30 10/101/30 12/120/30 96/3/30
f 97/154/30 13/129/30 11/114/30 95/153/30
f 96/3/30 12/120/30 14/133/30 98/13/30
f 99/155/30 15/142/30 13/129/30 97/154/30
f 98/13/30 14/133/30 16/145/30 100/17/30
f 101/156/30 17/107/30 15/142/30 99/155/30
f 100/17/30 16/145/30 18/112/30 102/19/30
f 103/157/30 19/104/30 17/107/30 101/156/30
f 102/19/30 18/112/30 20/113/30 104/21/30
f 105/158/30 21/126/30 19/104/30 103/157/30
f 104/21/30 20/113/30 22/128/30 106/23/30
f 107/159/30 23/136/30 21/126/30 105/158/30
f 106/23/30 22/128/30 24/141/30 108/25/30
f 109/160/30 25/146/30 23/136/30 107/159/30
f 108/25/30 24/141/30 26/102/30 110/27/30
f 111/161/30 27/119/30 25/146/30 109/160/30
f 110/27/30 26/102/30 28/103/30 112/29/30
f 113/162/30 29/116/30 27/119/30 111/161/30
f 112/29/30 28/103/30 30/121/30 114/31/30
f 192/163/30 174/42/30 115/41/30 31/164/30
f 31/164/30 115/41/30 29/116/30 113/162/30
f 114/31/30 30/121/30 116/45/30 32/33/30
f 32/33/30 116/45/30 132/165/30 154/34/30
f 161/16/30 155/166/30 119/134/30 153/152/30
f 40/37/19 82/87/19 151/86/19 133/38/19
f 155/166/18 158/65/18 137/135/18 119/134/18
f 81/88/2 74/84/2 150/83/2 152/85/2
f 191/89/2 190/139/2 151/86/2 152/85/2
f 188/167/2 189/90/2 150/83/2 149/81/2
f 199/168/31 200/169/31 166/170/31 165/171/31
f 200/169/32 201/172/32 167/173/32 166/170/32
f 201/172/33 202/174/33 168/175/33 167/173/33
f 202/174/34 203/176/34 169/177/34 168/175/34
f 203/176/35 204/178/35 170/179/35 169/177/35
f 204/178/36 205/180/36 171/181/36 170/179/36
f 205/180/3 206/182/3 172/183/3 171/181/3
f 206/182/37 208/184/37 173/185/37 172/183/37
f 49/124/2 46/123/2 137/135/2 138/186/2
f 224/187/38 225/188/38 188/167/38 149/81/38
f 160/57/2 177/189/2 135/55/2 139/61/2
f 48/62/2 49/124/2 138/186/2 139/61/2
f 177/189/2 178/190/2 136/51/2 135/55/2
f 178/190/2 179/191/2 140/52/2 136/51/2
f 39/36/1 134/35/1 132/165/1 116/45/1
f 176/39/1 134/35/1 133/38/1 175/138/1
f 173/185/1 131/32/1 154/34/1 192/163/1
f 210/192/39 128/26/39 129/28/39 211/193/39
f 209/194/40 127/24/40 128/26/40 210/192/40
f 226/195/41 229/196/41 145/73/41 144/71/41
f 193/197/4 194/198/4 125/20/4 126/22/4
f 213/199/42 143/69/42 142/67/42 227/200/42
f 227/200/43 142/67/43 141/63/43 228/201/43
f 196/202/44 197/203/44 122/4/44 123/14/44
f 214/204/45 140/52/45 179/191/45 215/205/45
f 7/151/1 120/206/1 153/152/1 4/150/1
f 198/207/46 199/168/46 165/171/46 164/208/46
f 157/7/1 121/11/1 117/5/1 162/209/1
f 6/12/1 121/11/1 120/206/1 7/151/1
f 162/209/1 117/5/1 118/1/1 163/210/1
f 163/210/1 118/1/1 122/4/1 164/208/1
f 9/148/1 163/210/1 164/208/1 95/153/1
f 1/149/1 162/209/1 163/210/1 9/148/1
f 5/8/1 157/7/1 162/209/1 1/149/1
f 95/153/1 164/208/1 165/171/1 97/154/1
f 97/154/1 165/171/1 166/170/1 99/155/1
f 99/155/1 166/170/1 167/173/1 101/156/1
f 101/156/1 167/173/1 168/175/1 103/157/1
f 103/157/1 168/175/1 169/177/1 105/158/1
f 105/158/1 169/177/1 170/179/1 107/159/1
f 107/159/1 170/179/1 171/181/1 109/160/1
f 109/160/1 171/181/1 172/183/1 111/161/1
f 111/161/1 172/183/1 173/185/1 113/162/1
f 113/162/1 173/185/1 192/163/1 31/164/1
f 38/40/1 176/39/1 175/138/1 37/43/1
f 51/109/2 53/115/2 179/191/2 178/190/2
f 43/110/2 51/109/2 178/190/2 177/189/2
f 47/60/2 43/110/2 177/189/2 160/57/2
f 53/115/2 55/130/2 180/211/2 179/191/2
f 55/130/2 57/143/2 181/212/2 180/211/2
f 57/143/2 59/106/2 182/213/2 181/212/2
f 59/106/2 61/105/2 183/214/2 182/213/2
f 61/105/2 63/127/2 184/215/2 183/214/2
f 63/127/2 65/137/2 185/216/2 184/215/2
f 65/137/2 67/147/2 186/217/2 185/216/2
f 67/147/2 69/118/2 187/218/2 186/217/2
f 69/118/2 71/117/2 188/167/2 187/218/2
f 71/117/2 73/91/2 189/90/2 188/167/2
f 80/92/2 79/94/2 190/139/2 191/89/2
f 90/132/18 45/66/18 158/65/18 155/166/18
f 3/15/30 90/132/30 155/166/30 161/16/30
f 154/34/30 132/165/30 174/42/30 192/163/30
f 133/38/19 151/86/19 190/139/19 175/138/19
f 152/85/2 150/83/2 189/90/2 191/89/2
f 138/186/2 137/135/2 158/65/2 159/58/2
f 139/61/2 138/186/2 159/58/2 160/57/2
f 134/35/1 176/39/1 174/42/1 132/165/1
f 120/206/1 156/10/1 161/16/1 153/152/1
f 121/11/1 157/7/1 156/10/1 120/206/1
f 211/193/4 129/28/4 130/30/4 212/219/4
f 224/187/47 149/81/47 148/79/47 232/220/47
f 131/32/48 207/221/48 212/219/48 130/30/48
f 122/4/49 197/203/49 198/207/49 164/208/49
f 124/18/50 195/222/50 196/202/50 123/14/50
f 125/20/51 194/198/51 195/222/51 124/18/51
f 126/22/52 127/24/52 209/194/52 193/197/52
f 131/32/53 173/185/53 208/184/53 207/221/53
f 194/198/1 201/172/1 200/169/1 195/222/1
f 180/211/54 181/212/54 217/223/54 216/224/54
f 181/212/55 182/213/55 218/225/55 217/223/55
f 182/213/56 183/214/56 219/226/56 218/225/56
f 183/214/57 184/215/57 220/227/57 219/226/57
f 184/215/58 185/216/58 221/228/58 220/227/58
f 185/216/59 186/217/59 222/229/59 221/228/59
f 186/217/3 187/218/3 223/230/3 222/229/3
f 187/218/60 188/167/60 225/188/60 223/230/60
f 146/75/61 230/231/61 231/232/61 147/77/61
f 145/73/62 229/196/62 230/231/62 146/75/62
f 144/71/4 143/69/4 213/199/4 226/195/4
f 141/63/63 140/52/63 214/204/63 228/201/63
f 179/191/64 180/211/64 216/224/64 215/205/64
f 147/77/4 231/232/4 232/220/4 148/79/4
f 193/197/1 202/174/1 201/172/1 194/198/1
f 209/194/1 203/176/1 202/174/1 193/197/1
f 210/192/1 204/178/1 203/176/1 209/194/1
f 211/193/1 205/180/1 204/178/1 210/192/1
f 212/219/1 206/182/1 205/180/1 211/193/1
f 207/221/1 208/184/1 206/182/1 212/219/1
f 195/222/1 200/169/1 199/168/1 196/202/1
f 198/207/1 197/203/1 196/202/1 199/168/1
f 228/201/2 214/204/2 215/205/2 216/224/2
f 217/223/2 227/200/2 228/201/2 216/224/2
f 218/225/2 213/199/2 227/200/2 217/223/2
f 218/225/2 219/226/2 226/195/2 213/199/2
f 220/227/2 229/196/2 226/195/2 219/226/2
f 220/227/2 221/228/2 230/231/2 229/196/2
f 221/228/2 222/229/2 231/232/2 230/231/2
f 222/229/2 223/230/2 232/220/2 231/232/2
f 225/188/2 224/187/2 232/220/2 223/230/2
