# Blender v2.91.0 OBJ File: 'LegoBricks.blend'
# www.blender.org
mtllib 2x3.mtl
o 2x3_Cube.001
v -0.400826 0.200671 0.794387
v -0.572899 0.200671 0.794387
v -0.572899 0.200671 0.956587
v -0.400826 0.200671 0.956587
v -0.400826 -0.434217 0.956587
v -0.572899 -0.434217 0.956587
v -0.572899 -0.434217 -0.794083
v -0.572899 0.200671 -0.794083
v -0.572899 0.200671 -0.952770
v -0.572899 -0.434216 -0.952770
v 0.404444 -0.434217 0.794387
v 0.575967 -0.434217 0.794387
v 0.575967 -0.434217 0.956587
v 0.404444 -0.434217 0.956587
v 0.575967 0.200671 0.794359
v 0.575967 0.200671 0.956587
v 0.404444 -0.434216 -0.952770
v 0.404444 0.200671 -0.952770
v 0.575967 0.200671 -0.952770
v 0.575967 -0.434216 -0.952770
v -0.572899 -0.434217 0.794387
v -0.400826 0.200671 0.158041
v -0.572899 0.200671 0.158041
v -0.572899 0.200671 0.475416
v -0.400826 0.200671 0.475416
v 0.404444 -0.434217 0.158041
v 0.575967 -0.434217 0.158041
v 0.575967 -0.434217 0.475416
v 0.404444 -0.434217 0.475416
v 0.575967 0.200671 0.158041
v 0.575967 0.200671 0.475416
v -0.572899 -0.434217 0.475416
v 0.575967 -0.434217 -0.476708
v 0.575967 0.200671 -0.476708
v 0.575967 0.200671 -0.159333
v 0.575967 -0.434217 -0.159333
v 0.404444 -0.434217 -0.476708
v 0.404444 -0.434217 -0.159333
v -0.400826 0.200671 -0.476708
v -0.572899 0.200671 -0.476708
v -0.572899 0.200671 -0.159333
v -0.400826 0.200671 -0.159333
v -0.572899 -0.434217 0.158041
v -0.572899 -0.434217 -0.159333
v -0.400826 0.200671 -0.952770
v -0.400826 0.200671 -0.794083
v 0.575967 -0.434217 -0.794083
v 0.404444 -0.434217 -0.794083
v 0.575967 0.200671 -0.794083
v -0.572899 -0.434217 -0.476708
v 0.404444 0.200671 -0.794083
v 0.404444 0.200671 -0.476708
v 0.107046 -0.434216 -0.952770
v 0.107046 -0.434217 -0.794083
v 0.404444 0.200671 -0.159333
v 0.404444 0.200671 0.158041
v 0.107046 -0.434217 0.794387
v 0.107046 0.147958 0.794387
v 0.404444 0.147958 0.794387
v -0.400826 -0.434217 -0.159333
v -0.400826 -0.434217 -0.476708
v -0.400826 0.147958 -0.476708
v -0.400826 0.147958 -0.159333
v 0.404444 0.147958 0.158041
v 0.404444 0.147958 -0.159333
v 0.404444 0.200671 0.475416
v 0.404444 0.200671 0.794387
v -0.400826 -0.434217 0.794387
v -0.400826 -0.434217 0.475416
v -0.400826 0.147958 0.475416
v -0.400826 0.147958 0.794387
v -0.112419 -0.434217 0.158041
v -0.112419 -0.434217 0.475416
v -0.112419 0.147958 0.475416
v -0.112419 0.147958 0.158041
v -0.400826 -0.434217 0.158041
v -0.400826 0.147958 0.158041
v 0.107046 0.200671 -0.952770
v 0.107046 -0.434217 0.956587
v 0.404444 0.200671 0.956587
v -0.400826 -0.434216 -0.952770
v -0.400826 -0.434217 -0.794083
v -0.112419 0.200671 -0.476708
v -0.112419 0.319131 -0.476708
v -0.400826 0.319131 -0.476708
v -0.112419 0.200671 -0.952770
v -0.112419 0.200671 -0.794083
v 0.404444 0.319131 -0.794083
v 0.404444 0.319131 -0.476708
v -0.112419 0.200671 -0.159333
v 0.107046 0.200671 -0.159333
v 0.107046 0.319131 -0.159333
v 0.404444 0.319131 -0.159333
v -0.112419 0.200671 0.158041
v -0.112419 0.200671 0.475416
v 0.107046 0.200671 -0.794083
v 0.107046 0.200671 -0.476708
v 0.107046 0.319131 -0.476708
v 0.107046 0.319131 -0.794083
v -0.112419 -0.434217 0.956587
v -0.112419 0.200671 0.956587
v -0.112419 0.200671 0.794387
v 0.107046 0.200671 0.794387
v 0.107046 0.200671 0.956587
v 0.107046 0.200671 0.158041
v 0.107046 0.200671 0.475416
v -0.400826 0.319131 0.158041
v -0.400826 0.319131 -0.159333
v -0.400826 0.319131 -0.794083
v -0.112419 0.319131 -0.794083
v -0.112419 -0.434217 0.794387
v -0.112419 -0.434216 -0.952770
v 0.107046 -0.434217 0.158041
v 0.107046 -0.434217 0.475416
v -0.112419 -0.434217 -0.476708
v -0.112419 -0.434217 -0.159333
v -0.112419 0.147958 -0.159333
v -0.112419 0.147958 -0.476708
v 0.107046 -0.434217 -0.476708
v 0.107046 -0.434217 -0.159333
v 0.107046 0.147958 -0.476708
v 0.107046 0.147958 -0.159333
v -0.112419 -0.434217 -0.794083
v -0.112419 0.147958 -0.794083
v -0.400826 0.147958 -0.794083
v 0.107046 0.147958 -0.794083
v 0.107046 0.147958 0.158041
v 0.107046 0.147958 0.475416
v 0.404444 0.147958 -0.476708
v 0.404444 0.147958 -0.794083
v -0.112419 0.319131 0.475416
v -0.400826 0.319131 0.475416
v -0.400826 0.319131 0.794359
v -0.112419 0.319131 0.794359
v 0.107046 0.319131 0.158041
v 0.404444 0.319131 0.158041
v -0.112419 0.319131 -0.159333
v -0.112419 0.319131 0.158041
v 0.404444 0.319131 0.475416
v 0.107046 0.319131 0.475416
v 0.107046 0.319131 0.794359
v 0.404444 0.319131 0.794359
v 0.404444 0.147958 0.475416
v -0.112419 0.147958 0.794359
vt 0.276973 0.446428
vt 0.241014 0.446428
vt 0.241014 0.412532
vt 0.276973 0.412532
vt 0.999689 0.448491
vt 0.867015 0.448491
vt 0.867015 0.412532
vt 0.999689 0.412532
vt 0.960874 0.033472
vt 0.828199 0.033472
vt 0.828199 0.000311
vt 0.960874 0.000311
vt 0.204550 0.777642
vt 0.240393 0.777642
vt 0.240393 0.811537
vt 0.204550 0.811537
vt 0.733719 0.777642
vt 0.866393 0.777636
vt 0.866393 0.811537
vt 0.733719 0.811537
vt 0.481718 0.868771
vt 0.614393 0.868771
vt 0.614393 0.904615
vt 0.481718 0.904615
vt 0.960874 0.399316
vt 0.828199 0.399316
vt 0.828199 0.365420
vt 0.960874 0.365420
vt 0.276973 0.579407
vt 0.241014 0.579407
vt 0.241014 0.513084
vt 0.276973 0.513084
vt 0.204549 0.644662
vt 0.240393 0.644662
vt 0.240393 0.710985
vt 0.204550 0.710985
vt 0.733719 0.644662
vt 0.866393 0.644662
vt 0.866393 0.710985
vt 0.733719 0.710985
vt 0.828199 0.298764
vt 0.960874 0.298764
vt 0.733719 0.512016
vt 0.866393 0.512016
vt 0.866393 0.578339
vt 0.733719 0.578339
vt 0.204550 0.512016
vt 0.240393 0.512016
vt 0.240393 0.578339
vt 0.204550 0.578339
vt 0.276973 0.712053
vt 0.241014 0.712053
vt 0.241014 0.645730
vt 0.276973 0.645730
vt 0.960874 0.232441
vt 0.828199 0.232441
vt 0.828199 0.166118
vt 0.960874 0.166118
vt 0.276973 0.811537
vt 0.241014 0.811537
vt 0.241014 0.778376
vt 0.276973 0.778376
vt 0.204550 0.412532
vt 0.240393 0.412532
vt 0.240393 0.445693
vt 0.204550 0.445693
vt 0.733719 0.412532
vt 0.866393 0.412532
vt 0.866393 0.445693
vt 0.733719 0.445693
vt 0.960874 0.099795
vt 0.828199 0.099795
vt 0.481097 0.778376
vt 0.445253 0.778376
vt 0.445253 0.712053
vt 0.481097 0.712053
vt 0.142401 0.412532
vt 0.142401 0.445693
vt 0.481097 0.811537
vt 0.445253 0.811537
vt 0.481097 0.645730
vt 0.445253 0.645730
vt 0.445253 0.579407
vt 0.481097 0.579407
vt 0.000311 0.290251
vt 0.000311 0.228102
vt 0.121971 0.228104
vt 0.121971 0.290252
vt 0.321274 0.000312
vt 0.387596 0.000312
vt 0.387596 0.121971
vt 0.321273 0.121971
vt 0.321273 0.411910
vt 0.254951 0.411910
vt 0.254950 0.290251
vt 0.321273 0.290251
vt 0.481097 0.513084
vt 0.445253 0.513084
vt 0.445253 0.446428
vt 0.481097 0.446433
vt 0.121972 0.000311
vt 0.188629 0.000311
vt 0.188627 0.121970
vt 0.121971 0.121969
vt 0.625198 0.563740
vt 0.625003 0.512568
vt 0.718870 0.512211
vt 0.719065 0.563383
vt 0.254951 0.000312
vt 0.254950 0.121971
vt 0.481718 0.806623
vt 0.614393 0.806623
vt 0.142401 0.777642
vt 0.142401 0.811537
vt 0.999689 0.652615
vt 0.867015 0.652615
vt 0.867015 0.616771
vt 0.999689 0.616771
vt 0.445253 0.412532
vt 0.481097 0.412532
vt 0.000311 0.777642
vt 0.036269 0.777642
vt 0.036269 0.811537
vt 0.000311 0.811537
vt 0.481718 0.664532
vt 0.614393 0.664532
vt 0.614393 0.700491
vt 0.481718 0.700491
vt 0.000311 0.644662
vt 0.036269 0.644662
vt 0.036269 0.710985
vt 0.000311 0.710985
vt 0.000311 0.512016
vt 0.036269 0.512016
vt 0.036269 0.578339
vt 0.000311 0.578339
vt 0.000311 0.412532
vt 0.036269 0.412532
vt 0.036269 0.445693
vt 0.000311 0.445693
vt 0.000311 0.897183
vt 0.000311 0.836913
vt 0.025066 0.836913
vt 0.025066 0.897183
vt 0.337243 0.811537
vt 0.337243 0.778376
vt 0.639769 0.664532
vt 0.706092 0.664532
vt 0.706092 0.689287
vt 0.639769 0.689287
vt 0.337243 0.712053
vt 0.337243 0.645730
vt 0.717735 0.252311
vt 0.779884 0.252311
vt 0.779884 0.277066
vt 0.717735 0.277066
vt 0.337243 0.579407
vt 0.337243 0.513084
vt 0.706092 0.776191
vt 0.639769 0.776191
vt 0.639769 0.751436
vt 0.706092 0.751436
vt 0.999689 0.508760
vt 0.867015 0.508760
vt 0.337243 0.446428
vt 0.337243 0.412532
vt 0.383105 0.446428
vt 0.383105 0.412532
vt 0.867015 0.554623
vt 0.999689 0.554623
vt 0.383105 0.579407
vt 0.383105 0.513084
vt 0.207842 0.921938
vt 0.141520 0.921938
vt 0.141520 0.897183
vt 0.207842 0.897183
vt 0.383105 0.712053
vt 0.383105 0.645730
vt 0.116144 0.836913
vt 0.116144 0.897183
vt 0.091389 0.897183
vt 0.091389 0.836913
vt 0.383105 0.811537
vt 0.383105 0.778376
vt 0.096539 0.777642
vt 0.096539 0.811537
vt 0.481718 0.760761
vt 0.614393 0.760761
vt 0.589813 0.563875
vt 0.589618 0.512703
vt 0.719683 0.151703
vt 0.719654 0.100277
vt 0.813987 0.100224
vt 0.814016 0.151649
vt 0.684122 0.151723
vt 0.684093 0.100297
vt 0.589790 0.151777
vt 0.589761 0.100351
vt 0.096539 0.412532
vt 0.096539 0.445693
vt 0.719737 0.246036
vt 0.684176 0.246056
vt 0.575577 0.121971
vt 0.575577 0.182240
vt 0.453919 0.182240
vt 0.453919 0.121971
vt 0.575577 0.228103
vt 0.453919 0.228103
vt 0.495946 0.564232
vt 0.495751 0.513060
vt 0.453919 0.411910
vt 0.387596 0.411910
vt 0.387596 0.290251
vt 0.453919 0.290251
vt 0.625555 0.657607
vt 0.590170 0.657742
vt 0.706420 0.801567
vt 0.706420 0.861836
vt 0.639769 0.861836
vt 0.639769 0.801567
vt 0.779884 0.343389
vt 0.717735 0.343389
vt 0.639763 0.776812
vt 0.706420 0.776812
vt 0.706420 0.886591
vt 0.639763 0.886591
vt 0.779884 0.368144
vt 0.717735 0.368144
vt 0.731175 0.801567
vt 0.731175 0.861836
vt 0.692980 0.343389
vt 0.692980 0.277066
vt 0.615014 0.861836
vt 0.615014 0.801567
vt 0.091389 0.921938
vt 0.025066 0.921938
vt 0.804639 0.277066
vt 0.804639 0.343389
vt 0.025066 0.812158
vt 0.091389 0.812158
vt 0.207842 0.836913
vt 0.141520 0.836913
vt 0.667604 0.277066
vt 0.667604 0.339214
vt 0.600954 0.339214
vt 0.600954 0.277066
vt 0.600948 0.252311
vt 0.667604 0.252311
vt 0.692359 0.277066
vt 0.692359 0.339214
vt 0.730847 0.689287
vt 0.730847 0.751436
vt 0.667604 0.363969
vt 0.600948 0.363969
vt 0.141520 0.812158
vt 0.207842 0.812158
vt 0.576199 0.339214
vt 0.576199 0.277066
vt 0.232598 0.836913
vt 0.232598 0.897183
vt 0.615014 0.751436
vt 0.615014 0.689287
vt 0.116765 0.897183
vt 0.116765 0.836913
vt 0.387596 0.228103
vt 0.321273 0.228103
vt 0.254950 0.228103
vt 0.188627 0.228103
vt 0.188627 0.290251
vt 0.188627 0.182240
vt 0.121974 0.182240
vt 0.321273 0.182240
vt 0.254950 0.182240
vt 0.387596 0.182240
vt 0.188628 0.411911
vt 0.121971 0.411911
vt 0.453919 0.000313
vt 0.000312 0.182239
vt 0.000312 0.121970
vt 0.589260 0.418836
vt 0.624646 0.418701
vt 0.575578 0.290251
vt 0.684040 0.005965
vt 0.719601 0.005945
vn 0.0000 1.0000 0.0000
vn 0.0000 -0.0000 1.0000
vn -1.0000 -0.0000 0.0000
vn 0.0000 -1.0000 -0.0000
vn 1.0000 0.0000 0.0000
vn 0.0000 0.0000 -1.0000
vn 0.0000 0.0002 1.0000
usemtl Material.001
s 1
f 1/1/1 2/2/1 3/3/1 4/4/1
f 5/5/2 4/6/2 3/7/2 6/8/2
f 7/9/3 8/10/3 9/11/3 10/12/3
f 11/13/4 12/14/4 13/15/4 14/16/4
f 12/17/5 15/18/5 16/19/5 13/20/5
f 17/21/6 18/22/6 19/23/6 20/24/6
f 6/25/3 3/26/3 2/27/3 21/28/3
f 22/29/1 23/30/1 24/31/1 25/32/1
f 26/33/4 27/34/4 28/35/4 29/36/4
f 27/37/5 30/38/5 31/39/5 28/40/5
f 21/28/3 2/27/3 24/41/3 32/42/3
f 25/32/1 24/31/1 2/2/1 1/1/1
f 29/36/4 28/35/4 12/14/4 11/13/4
f 28/40/5 31/39/5 15/18/5 12/17/5
f 33/43/5 34/44/5 35/45/5 36/46/5
f 37/47/4 33/48/4 36/49/4 38/50/4
f 39/51/1 40/52/1 41/53/1 42/54/1
f 43/55/3 23/56/3 41/57/3 44/58/3
f 32/42/3 24/41/3 23/56/3 43/55/3
f 36/46/5 35/45/5 30/38/5 27/37/5
f 38/50/4 36/49/4 27/34/4 26/33/4
f 42/54/1 41/53/1 23/30/1 22/29/1
f 45/59/1 9/60/1 8/61/1 46/62/1
f 17/63/4 20/64/4 47/65/4 48/66/4
f 20/67/5 19/68/5 49/69/5 47/70/5
f 50/71/3 40/72/3 8/10/3 7/9/3
f 44/58/3 41/57/3 40/72/3 50/71/3
f 46/62/1 8/61/1 40/52/1 39/51/1
f 48/66/4 47/65/4 33/48/4 37/47/4
f 47/70/5 49/69/5 34/44/5 33/43/5
f 49/73/1 51/74/1 52/75/1 34/76/1
f 53/77/4 17/63/4 48/66/4 54/78/4
f 19/79/1 18/80/1 51/74/1 49/73/1
f 35/81/1 55/82/1 56/83/1 30/84/1
f 11/85/6 57/86/6 58/87/6 59/88/6
f 34/76/1 52/75/1 55/82/1 35/81/1
f 60/89/5 61/90/5 62/91/5 63/92/5
f 38/93/3 26/94/3 64/95/3 65/96/3
f 31/97/1 66/98/1 67/99/1 15/100/1
f 68/101/5 69/102/5 70/103/5 71/104/5
f 30/84/1 56/83/1 66/98/1 31/97/1
f 72/105/3 73/106/3 74/107/3 75/108/3
f 69/102/5 76/109/5 77/110/5 70/103/5
f 53/111/6 78/112/6 18/22/6 17/21/6
f 57/113/4 11/13/4 14/16/4 79/114/4
f 13/115/2 16/116/2 80/117/2 14/118/2
f 15/100/1 67/99/1 80/119/1 16/120/1
f 21/121/4 68/122/4 5/123/4 6/124/4
f 10/125/6 9/126/6 45/127/6 81/128/6
f 43/129/4 76/130/4 69/131/4 32/132/4
f 32/132/4 69/131/4 68/122/4 21/121/4
f 50/133/4 61/134/4 60/135/4 44/136/4
f 44/136/4 60/135/4 76/130/4 43/129/4
f 10/137/4 81/138/4 82/139/4 7/140/4
f 7/140/4 82/139/4 61/134/4 50/133/4
f 39/141/2 83/142/2 84/143/2 85/144/2
f 86/145/1 45/59/1 46/62/1 87/146/1
f 52/147/5 51/148/5 88/149/5 89/150/5
f 83/151/1 39/51/1 42/54/1 90/152/1
f 55/153/6 91/154/6 92/155/6 93/156/6
f 94/157/1 22/29/1 25/32/1 95/158/1
f 96/159/3 97/160/3 98/161/3 99/162/3
f 100/163/2 101/164/2 4/6/2 5/5/2
f 102/165/1 1/1/1 4/4/1 101/166/1
f 67/99/1 103/167/1 104/168/1 80/119/1
f 14/118/2 80/117/2 104/169/2 79/170/2
f 56/83/1 105/171/1 106/172/1 66/98/1
f 42/173/3 22/174/3 107/175/3 108/176/3
f 52/75/1 97/177/1 91/178/1 55/82/1
f 87/179/6 46/180/6 109/181/6 110/182/6
f 18/80/1 78/183/1 96/184/1 51/74/1
f 111/185/4 57/113/4 79/114/4 100/186/4
f 112/187/6 86/188/6 78/112/6 53/111/6
f 72/105/4 113/189/4 114/190/4 73/106/4
f 115/191/3 116/192/3 117/193/3 118/194/3
f 115/191/4 119/195/4 120/196/4 116/192/4
f 120/196/5 119/195/5 121/197/5 122/198/5
f 112/199/4 53/77/4 54/78/4 123/200/4
f 119/195/6 115/191/6 118/201/6 121/202/6
f 81/138/4 112/199/4 123/200/4 82/139/4
f 82/203/2 123/204/2 124/205/2 125/206/2
f 123/204/2 54/207/2 126/208/2 124/205/2
f 114/190/5 113/189/5 127/209/5 128/210/5
f 48/211/3 37/212/3 129/213/3 130/214/3
f 113/189/6 72/105/6 75/215/6 127/216/6
f 81/128/6 45/127/6 86/188/6 112/187/6
f 68/122/4 111/185/4 100/186/4 5/123/4
f 103/167/1 102/165/1 101/166/1 104/168/1
f 79/170/2 104/169/2 101/164/2 100/163/2
f 105/171/1 94/157/1 95/158/1 106/172/1
f 106/172/1 95/158/1 102/165/1 103/167/1
f 97/177/1 83/151/1 90/152/1 91/178/1
f 91/178/1 90/152/1 94/157/1 105/171/1
f 78/183/1 86/145/1 87/146/1 96/184/1
f 96/184/1 87/146/1 83/151/1 97/177/1
f 110/182/1 109/181/1 85/144/1 84/143/1
f 131/217/1 132/218/1 133/219/1 134/220/1
f 93/156/1 92/155/1 135/221/1 136/222/1
f 102/223/5 95/224/5 131/217/5 134/220/5
f 25/225/3 1/226/3 133/219/3 132/218/3
f 105/227/2 56/228/2 136/222/2 135/221/2
f 95/229/6 25/230/6 132/218/6 131/217/6
f 56/231/5 55/232/5 93/156/5 136/222/5
f 1/233/7 102/234/7 134/220/7 133/219/7
f 46/235/3 39/236/3 85/144/3 109/181/3
f 91/237/3 105/238/3 135/221/3 92/155/3
f 83/239/5 87/240/5 110/182/5 84/143/5
f 137/241/1 108/176/1 107/175/1 138/242/1
f 139/243/1 140/244/1 141/245/1 142/246/1
f 88/149/1 99/162/1 98/161/1 89/150/1
f 67/247/5 66/248/5 139/243/5 142/246/5
f 66/249/6 106/250/6 140/244/6 139/243/6
f 51/251/6 96/252/6 99/162/6 88/149/6
f 106/253/3 103/254/3 141/245/3 140/244/3
f 94/255/5 90/256/5 137/241/5 138/242/5
f 103/257/7 67/258/7 142/246/7 141/245/7
f 90/259/6 42/260/6 108/176/6 137/241/6
f 97/261/2 52/262/2 89/150/2 98/161/2
f 22/263/2 94/264/2 138/242/2 107/175/2
f 126/208/4 130/214/4 129/213/4 121/265/4
f 122/266/4 65/96/4 64/95/4 127/267/4
f 121/265/4 129/213/4 65/96/4 122/266/4
f 128/268/4 143/269/4 59/88/4 58/87/4
f 127/267/4 64/95/4 143/269/4 128/268/4
f 74/270/4 128/268/4 58/87/4 144/271/4
f 117/272/4 122/266/4 127/267/4 75/273/4
f 124/205/4 126/208/4 121/265/4 118/274/4
f 125/206/4 124/205/4 118/274/4 62/91/4
f 63/92/4 117/272/4 75/273/4 77/110/4
f 62/91/4 118/274/4 117/272/4 63/92/4
f 70/103/4 74/270/4 144/271/4 71/104/4
f 77/110/4 75/273/4 74/270/4 70/103/4
f 76/109/5 60/89/5 63/92/5 77/110/5
f 37/212/3 38/93/3 65/96/3 129/213/3
f 29/275/3 11/276/3 59/88/3 143/269/3
f 61/90/5 82/277/5 125/206/5 62/91/5
f 57/86/6 111/278/6 144/271/6 58/87/6
f 111/278/6 68/279/6 71/104/6 144/271/6
f 26/94/3 29/275/3 143/269/3 64/95/3
f 73/106/2 114/190/2 128/280/2 74/281/2
f 54/207/2 48/282/2 130/214/2 126/208/2
f 116/192/2 120/196/2 122/283/2 117/284/2
