# Blender v2.91.0 OBJ File: 'LegoBricks.blend'
# www.blender.org
mtllib 2x4.mtl
o 2x4_Cube.003
v -0.400816 0.195593 1.104603
v -0.572889 0.195593 1.104603
v -0.572889 0.195593 1.266803
v -0.400816 0.195593 1.266803
v -0.400816 -0.439295 1.266803
v -0.572889 -0.439295 1.266803
v -0.572889 -0.439294 -1.110401
v -0.572889 0.195594 -1.110401
v -0.572889 0.195594 -1.269088
v -0.572889 -0.439294 -1.269088
v 0.404454 -0.439294 1.104603
v 0.575977 -0.439294 1.104603
v 0.575977 -0.439295 1.266803
v 0.404454 -0.439295 1.266803
v 0.575977 0.195593 1.104603
v 0.575977 0.195593 1.266803
v 0.404454 -0.439294 -1.269088
v 0.404454 0.195594 -1.269088
v 0.575977 0.195594 -1.269088
v 0.575977 -0.439294 -1.269088
v 0.575977 -0.439294 0.478041
v 0.575977 0.195594 0.478041
v 0.575977 0.195594 0.796983
v 0.575977 -0.439294 0.796983
v 0.404454 -0.439294 0.478041
v 0.404454 -0.439294 0.796983
v -0.572889 -0.439294 1.104603
v -0.572889 0.195594 0.796983
v -0.572889 -0.439294 0.796983
v -0.400816 0.195594 0.478041
v -0.572889 0.195594 0.478041
v -0.400816 0.195594 0.796983
v -0.400816 0.195594 -0.158277
v -0.572889 0.195594 -0.158277
v -0.572889 0.195594 0.159098
v -0.400816 0.195594 0.159098
v 0.404454 -0.439294 -0.158277
v 0.575977 -0.439294 -0.158277
v 0.575977 -0.439294 0.159098
v 0.404454 -0.439294 0.159098
v 0.575977 0.195594 -0.158277
v 0.575977 0.195594 0.159098
v -0.572889 -0.439294 0.478041
v -0.572889 -0.439294 0.159098
v 0.575977 -0.439294 -0.793026
v 0.575977 0.195594 -0.793026
v 0.575977 0.195594 -0.475652
v 0.575977 -0.439294 -0.475652
v 0.404454 -0.439294 -0.793026
v 0.404454 -0.439294 -0.475652
v -0.400816 0.195594 -0.793026
v -0.572889 0.195594 -0.793026
v -0.572889 0.195594 -0.475652
v -0.400816 0.195594 -0.475652
v -0.572889 -0.439294 -0.158277
v -0.572889 -0.439294 -0.475652
v -0.400816 0.195594 -1.269088
v -0.400816 0.195594 -1.110401
v 0.575977 -0.439294 -1.110401
v 0.404454 -0.439294 -1.110401
v 0.575977 0.195594 -1.110401
v -0.572889 -0.439294 -0.793026
v -0.112409 -0.439294 0.478041
v -0.112409 -0.439294 0.796983
v -0.112409 0.142881 0.796983
v -0.112409 0.142881 0.478041
v 0.404454 0.195594 -1.110401
v 0.404454 0.195594 -0.793026
v 0.107056 -0.439294 -1.269088
v 0.107056 -0.439294 -1.110401
v 0.404454 0.195594 -0.475652
v 0.404454 0.195594 -0.158277
v 0.107056 -0.439294 1.104603
v 0.107056 0.142880 1.104603
v 0.404454 0.142880 1.104603
v -0.400816 -0.439294 -0.475652
v -0.400816 -0.439294 -0.793026
v -0.400816 0.142881 -0.793026
v -0.400816 0.142881 -0.475652
v 0.404454 0.142881 -0.158277
v 0.404454 0.142881 -0.475652
v 0.404454 0.195594 0.159098
v 0.404454 0.195594 0.478041
v -0.400816 -0.439294 0.478041
v -0.400816 -0.439294 0.159098
v -0.400816 0.142881 0.159098
v -0.400816 0.142881 0.478041
v 0.404454 0.195594 0.796983
v 0.404454 0.195593 1.104603
v -0.112409 -0.439294 -0.158277
v -0.112409 -0.439294 0.159098
v -0.112409 0.142881 0.159098
v -0.112409 0.142881 -0.158277
v -0.400816 -0.439294 -0.158277
v -0.400816 0.142881 -0.158277
v 0.107056 0.195594 -1.269088
v 0.107056 -0.439295 1.266803
v 0.404454 0.195593 1.266803
v -0.400816 -0.439294 1.104603
v -0.400816 -0.439294 -1.269088
v -0.400816 -0.439294 0.796983
v -0.400816 -0.439294 -1.110401
v -0.112409 0.195594 -0.793026
v -0.112409 0.314054 -0.793026
v -0.400816 0.314054 -0.793026
v -0.112409 0.195594 -1.269088
v -0.112409 0.195594 -1.110401
v 0.404454 0.314054 -1.110401
v 0.404454 0.314054 -0.793026
v -0.112409 0.195594 -0.475652
v 0.107056 0.195594 -0.475652
v 0.107056 0.314054 -0.475652
v 0.404454 0.314054 -0.475652
v -0.112409 0.195594 -0.158277
v -0.112409 0.195594 0.159098
v 0.107056 0.195594 -1.110401
v 0.107056 0.195594 -0.793026
v 0.107056 0.314054 -0.793026
v 0.107056 0.314054 -1.110401
v -0.112409 0.195594 0.478041
v -0.112409 0.195594 0.796983
v -0.112409 -0.439295 1.266803
v -0.112409 0.195593 1.266803
v -0.112409 0.195593 1.104603
v 0.107056 0.195593 1.104603
v 0.107056 0.195593 1.266803
v 0.107056 0.195594 0.478041
v 0.107056 0.195594 0.796983
v 0.107056 0.314054 0.796983
v 0.404454 0.314054 0.796983
v 0.107056 0.195594 -0.158277
v 0.107056 0.195594 0.159098
v -0.400816 0.314054 -0.158277
v -0.400816 0.314054 -0.475652
v -0.400816 0.314054 -1.110401
v -0.112409 0.314054 -1.110401
v -0.112409 0.314054 0.796983
v -0.112409 0.314053 1.104603
v -0.112409 -0.439294 1.104603
v -0.112409 -0.439294 -1.269088
v 0.107056 -0.439294 0.478041
v 0.107056 -0.439294 0.796983
v -0.400816 0.142881 0.796983
v -0.400816 0.142880 1.104603
v 0.107056 -0.439294 -0.158277
v 0.107056 -0.439294 0.159098
v -0.112409 -0.439294 -0.793026
v -0.112409 -0.439294 -0.475652
v -0.112409 0.142881 -0.475652
v -0.112409 0.142881 -0.793026
v 0.107056 -0.439294 -0.793026
v 0.107056 -0.439294 -0.475652
v 0.107056 0.142881 -0.793026
v 0.107056 0.142881 -0.475652
v -0.112409 -0.439294 -1.110401
v 0.404454 0.142881 0.796983
v 0.404454 0.142881 0.478041
v -0.112409 0.142881 -1.110401
v -0.400816 0.142881 -1.110401
v 0.107056 0.142881 -1.110401
v 0.107056 0.142881 -0.158277
v 0.107056 0.142881 0.159098
v 0.404454 0.142881 -0.793026
v 0.404454 0.142881 -1.110401
v -0.112409 0.314054 0.159098
v -0.400816 0.314054 0.159098
v -0.400816 0.314054 0.478041
v -0.112409 0.314054 0.478041
v 0.107056 0.314053 1.104603
v 0.404454 0.314053 1.104603
v 0.107056 0.314054 -0.158277
v 0.404454 0.314054 -0.158277
v -0.112409 0.314054 -0.475652
v -0.112409 0.314054 -0.158277
v -0.400816 0.314054 0.796983
v -0.400816 0.314053 1.104603
v 0.404454 0.314054 0.159098
v 0.107056 0.314054 0.159098
v 0.107056 0.314054 0.478041
v 0.404454 0.314054 0.478041
v 0.404454 0.142881 0.159098
v 0.107056 0.142881 0.478041
v 0.107056 0.142881 0.796983
v -0.112409 0.142880 1.104603
vt 0.407629 0.831810
vt 0.440542 0.831810
vt 0.440542 0.862835
vt 0.407629 0.862835
vt 0.999652 0.750006
vt 0.878214 0.750006
vt 0.878214 0.717093
vt 0.999652 0.717093
vt 0.768868 0.030701
vt 0.647429 0.030701
vt 0.647429 0.000348
vt 0.768868 0.000348
vt 0.033156 0.408807
vt 0.000348 0.408807
vt 0.000348 0.377782
vt 0.033156 0.377782
vt 0.562676 0.408807
vt 0.441238 0.408807
vt 0.441238 0.377782
vt 0.562676 0.377782
vt 0.891001 0.263940
vt 0.769563 0.263940
vt 0.769563 0.231132
vt 0.891001 0.231132
vt 0.562676 0.528653
vt 0.441238 0.528653
vt 0.441238 0.467647
vt 0.562676 0.467647
vt 0.033156 0.528653
vt 0.000348 0.528653
vt 0.000348 0.467647
vt 0.033156 0.467647
vt 0.768868 0.454376
vt 0.647429 0.454376
vt 0.647429 0.395536
vt 0.768868 0.395536
vt 0.407629 0.711965
vt 0.440542 0.711965
vt 0.440542 0.772970
vt 0.407629 0.772970
vt 0.768868 0.485401
vt 0.647429 0.485401
vt 0.407629 0.590253
vt 0.440542 0.590253
vt 0.440542 0.650959
vt 0.407629 0.650959
vt 0.033156 0.650365
vt 0.000348 0.650365
vt 0.000348 0.589659
vt 0.033156 0.589659
vt 0.562676 0.650365
vt 0.441238 0.650365
vt 0.441238 0.589659
vt 0.562676 0.589659
vt 0.768868 0.334530
vt 0.647429 0.334530
vt 0.647429 0.273524
vt 0.768868 0.273524
vt 0.562676 0.771776
vt 0.441238 0.771776
vt 0.441238 0.711071
vt 0.562676 0.711071
vt 0.033156 0.771776
vt 0.000348 0.771776
vt 0.000348 0.711071
vt 0.033156 0.711071
vt 0.407629 0.468841
vt 0.440542 0.468841
vt 0.440542 0.529547
vt 0.407629 0.529547
vt 0.768868 0.212818
vt 0.647429 0.212818
vt 0.647429 0.152112
vt 0.768868 0.152112
vt 0.407629 0.377782
vt 0.440542 0.377782
vt 0.440542 0.408135
vt 0.407629 0.408135
vt 0.033156 0.862835
vt 0.000348 0.862835
vt 0.000348 0.832482
vt 0.033156 0.832482
vt 0.562676 0.862835
vt 0.441238 0.862835
vt 0.441238 0.832482
vt 0.562676 0.832482
vt 0.768868 0.091407
vt 0.647429 0.091407
vt 0.680679 0.605373
vt 0.680310 0.666378
vt 0.568957 0.665705
vt 0.569325 0.604701
vt 0.220793 0.408135
vt 0.253601 0.408135
vt 0.253601 0.468841
vt 0.220793 0.468841
vt 0.090041 0.862835
vt 0.090041 0.832482
vt 0.220793 0.377782
vt 0.253601 0.377782
vt 0.220793 0.529547
vt 0.253601 0.529547
vt 0.253601 0.590253
vt 0.220793 0.590253
vt 0.000348 0.265731
vt 0.000348 0.208846
vt 0.111703 0.208847
vt 0.111703 0.265731
vt 0.413967 0.000348
vt 0.474672 0.000348
vt 0.474672 0.111703
vt 0.413967 0.111703
vt 0.413967 0.377087
vt 0.353261 0.377087
vt 0.353261 0.265731
vt 0.413967 0.265731
vt 0.220793 0.650959
vt 0.253601 0.650959
vt 0.253601 0.711965
vt 0.220793 0.711965
vt 0.231549 0.000348
vt 0.292555 0.000348
vt 0.292555 0.111703
vt 0.231549 0.111703
vt 0.220793 0.772970
vt 0.253601 0.772970
vt 0.253601 0.831810
vt 0.220793 0.831810
vt 0.731550 0.861074
vt 0.781091 0.861373
vt 0.780543 0.952248
vt 0.731001 0.951949
vt 0.353261 0.000348
vt 0.353261 0.111703
vt 0.891001 0.320825
vt 0.769563 0.320825
vt 0.090041 0.408807
vt 0.090041 0.377782
vt 0.999652 0.936842
vt 0.878214 0.936842
vt 0.878214 0.904034
vt 0.999652 0.904034
vt 0.253601 0.862835
vt 0.220793 0.862835
vt 0.220097 0.408807
vt 0.187184 0.408807
vt 0.187184 0.377782
vt 0.220097 0.377782
vt 0.891001 0.450882
vt 0.769563 0.450882
vt 0.769563 0.417968
vt 0.891001 0.417968
vt 0.220097 0.528653
vt 0.187184 0.528653
vt 0.187184 0.467647
vt 0.220097 0.467647
vt 0.220097 0.650365
vt 0.187184 0.650365
vt 0.187184 0.589659
vt 0.220097 0.589659
vt 0.220097 0.771776
vt 0.187184 0.771776
vt 0.187184 0.711071
vt 0.220097 0.711071
vt 0.220097 0.862835
vt 0.187184 0.862835
vt 0.187184 0.832482
vt 0.220097 0.832482
vt 0.956249 0.592119
vt 0.901084 0.592119
vt 0.901084 0.569460
vt 0.956249 0.569460
vt 0.352464 0.377782
vt 0.352464 0.408135
vt 0.228800 0.863531
vt 0.289506 0.863531
vt 0.289506 0.886189
vt 0.228800 0.886189
vt 0.352464 0.468841
vt 0.352464 0.529547
vt 0.182788 0.969553
vt 0.125903 0.969553
vt 0.125903 0.946895
vt 0.182788 0.946895
vt 0.352464 0.590253
vt 0.352464 0.650959
vt 0.289506 0.965732
vt 0.228800 0.965732
vt 0.228800 0.943074
vt 0.289506 0.943074
vt 0.352464 0.711965
vt 0.352464 0.772970
vt 0.999652 0.805171
vt 0.878214 0.805171
vt 0.352464 0.831810
vt 0.352464 0.862835
vt 0.310486 0.831810
vt 0.310486 0.862835
vt 0.878214 0.847149
vt 0.999652 0.847149
vt 0.310486 0.711965
vt 0.310486 0.772970
vt 0.901084 0.592814
vt 0.957969 0.592814
vt 0.957969 0.615473
vt 0.901084 0.615473
vt 0.310486 0.590253
vt 0.310486 0.650959
vt 0.462194 0.946895
vt 0.462194 0.886189
vt 0.484852 0.886189
vt 0.484852 0.946895
vt 0.310486 0.468841
vt 0.310486 0.529547
vt 0.901084 0.486096
vt 0.956249 0.486096
vt 0.956249 0.508754
vt 0.901084 0.508754
vt 0.310486 0.377782
vt 0.310486 0.408135
vt 0.914355 0.231132
vt 0.973195 0.231132
vt 0.973195 0.253791
vt 0.914355 0.253791
vt 0.132019 0.408807
vt 0.132019 0.377782
vt 0.891001 0.362803
vt 0.769563 0.362803
vt 0.722656 0.605627
vt 0.722288 0.666631
vt 0.111703 0.000348
vt 0.170543 0.000348
vt 0.170543 0.111703
vt 0.111703 0.111703
vt 0.731757 0.826816
vt 0.781298 0.827115
vt 0.866920 0.127287
vt 0.914198 0.127573
vt 0.913674 0.214297
vt 0.866396 0.214012
vt 0.867117 0.094595
vt 0.914395 0.094880
vt 0.867641 0.007870
vt 0.914919 0.008156
vt 0.132019 0.862835
vt 0.132019 0.832482
vt 0.780196 0.126764
vt 0.780393 0.094071
vt 0.231549 0.377087
vt 0.170543 0.377087
vt 0.170543 0.265731
vt 0.231549 0.265731
vt 0.646734 0.111703
vt 0.646734 0.166868
vt 0.535378 0.166868
vt 0.535378 0.111703
vt 0.646734 0.208847
vt 0.535378 0.208847
vt 0.732306 0.735941
vt 0.781847 0.736240
vt 0.535378 0.377087
vt 0.474672 0.377087
vt 0.474672 0.265731
vt 0.535378 0.265731
vt 0.640675 0.860525
vt 0.640881 0.826267
vt 0.396524 0.886189
vt 0.396524 0.941354
vt 0.335519 0.941354
vt 0.335519 0.886189
vt 0.957969 0.674313
vt 0.901084 0.674313
vt 0.125903 0.886189
vt 0.182788 0.886189
vt 0.980628 0.615473
vt 0.980628 0.674313
vt 0.335519 0.863531
vt 0.396525 0.863531
vt 0.957969 0.696971
vt 0.901084 0.696971
vt 0.396524 0.964013
vt 0.335519 0.964013
vt 0.125903 0.863531
vt 0.182788 0.863531
vt 0.419183 0.886189
vt 0.419183 0.941354
vt 0.205447 0.886189
vt 0.205447 0.946895
vt 0.312860 0.941354
vt 0.312860 0.886189
vt 0.878426 0.674313
vt 0.878426 0.615473
vt 0.978908 0.508754
vt 0.978908 0.569460
vt 0.103245 0.946895
vt 0.103245 0.886189
vt 0.878426 0.569460
vt 0.878426 0.508754
vt 0.540017 0.946895
vt 0.540017 0.886189
vt 0.973195 0.308956
vt 0.914355 0.308956
vt 0.079891 0.947195
vt 0.023006 0.947195
vt 0.023006 0.886189
vt 0.079891 0.886189
vt 0.995854 0.253791
vt 0.995854 0.308956
vt 0.102549 0.886189
vt 0.102549 0.947195
vt 0.891697 0.308956
vt 0.891697 0.253791
vt 0.079891 0.969853
vt 0.023006 0.969853
vt 0.312165 0.886189
vt 0.312165 0.943074
vt 0.000348 0.947195
vt 0.000348 0.886189
vt 0.562676 0.886189
vt 0.562676 0.946895
vt 0.973195 0.331614
vt 0.914355 0.331614
vt 0.023006 0.863531
vt 0.079891 0.863531
vt 0.540017 0.969554
vt 0.484852 0.969554
vt 0.206142 0.943074
vt 0.206142 0.886189
vt 0.484852 0.863531
vt 0.540017 0.863531
vt 0.474672 0.208847
vt 0.413967 0.208847
vt 0.353261 0.208847
vt 0.292555 0.208847
vt 0.292555 0.265731
vt 0.231549 0.208847
vt 0.170543 0.208847
vt 0.170543 0.166868
vt 0.111703 0.166868
vt 0.292555 0.166868
vt 0.231549 0.166868
vt 0.413967 0.166868
vt 0.353261 0.166868
vt 0.474672 0.166868
vt 0.292555 0.377087
vt 0.721615 0.777985
vt 0.679638 0.777731
vt 0.535378 0.000348
vt 0.000348 0.166868
vt 0.000348 0.111703
vt 0.872174 0.827664
vt 0.871967 0.861922
vt 0.646734 0.265731
vt 0.681351 0.494020
vt 0.723328 0.494273
vt 0.834010 0.606299
vt 0.833641 0.667303
vt 1.001119 0.095404
vt 1.000922 0.128097
vt 0.111703 0.377087
vn 0.0000 1.0000 0.0000
vn 0.0000 -0.0000 1.0000
vn -1.0000 0.0000 0.0000
vn 0.0000 -1.0000 -0.0000
vn 1.0000 -0.0000 0.0000
vn 0.0000 0.0000 -1.0000
usemtl Material.003
s 1
f 1/1/1 2/2/1 3/3/1 4/4/1
f 5/5/2 4/6/2 3/7/2 6/8/2
f 7/9/3 8/10/3 9/11/3 10/12/3
f 11/13/4 12/14/4 13/15/4 14/16/4
f 12/17/5 15/18/5 16/19/5 13/20/5
f 17/21/6 18/22/6 19/23/6 20/24/6
f 21/25/5 22/26/5 23/27/5 24/28/5
f 25/29/4 21/30/4 24/31/4 26/32/4
f 27/33/3 2/34/3 28/35/3 29/36/3
f 30/37/1 31/38/1 28/39/1 32/40/1
f 6/41/3 3/42/3 2/34/3 27/33/3
f 24/28/5 23/27/5 15/18/5 12/17/5
f 26/32/4 24/31/4 12/14/4 11/13/4
f 32/40/1 28/39/1 2/2/1 1/1/1
f 33/43/1 34/44/1 35/45/1 36/46/1
f 37/47/4 38/48/4 39/49/4 40/50/4
f 38/51/5 41/52/5 42/53/5 39/54/5
f 43/55/3 31/56/3 35/57/3 44/58/3
f 29/36/3 28/35/3 31/56/3 43/55/3
f 36/46/1 35/45/1 31/38/1 30/37/1
f 40/50/4 39/49/4 21/30/4 25/29/4
f 39/54/5 42/53/5 22/26/5 21/25/5
f 45/59/5 46/60/5 47/61/5 48/62/5
f 49/63/4 45/64/4 48/65/4 50/66/4
f 51/67/1 52/68/1 53/69/1 54/70/1
f 55/71/3 34/72/3 53/73/3 56/74/3
f 44/58/3 35/57/3 34/72/3 55/71/3
f 48/62/5 47/61/5 41/52/5 38/51/5
f 50/66/4 48/65/4 38/48/4 37/47/4
f 54/70/1 53/69/1 34/44/1 33/43/1
f 57/75/1 9/76/1 8/77/1 58/78/1
f 17/79/4 20/80/4 59/81/4 60/82/4
f 20/83/5 19/84/5 61/85/5 59/86/5
f 62/87/3 52/88/3 8/10/3 7/9/3
f 56/74/3 53/73/3 52/88/3 62/87/3
f 58/78/1 8/77/1 52/68/1 51/67/1
f 60/82/4 59/81/4 45/64/4 49/63/4
f 59/86/5 61/85/5 46/60/5 45/59/5
f 63/89/3 64/90/3 65/91/3 66/92/3
f 61/93/1 67/94/1 68/95/1 46/96/1
f 69/97/4 17/79/4 60/82/4 70/98/4
f 19/99/1 18/100/1 67/94/1 61/93/1
f 47/101/1 71/102/1 72/103/1 41/104/1
f 11/105/6 73/106/6 74/107/6 75/108/6
f 46/96/1 68/95/1 71/102/1 47/101/1
f 76/109/5 77/110/5 78/111/5 79/112/5
f 50/113/3 37/114/3 80/115/3 81/116/3
f 42/117/1 82/118/1 83/119/1 22/120/1
f 84/121/5 85/122/5 86/123/5 87/124/5
f 41/104/1 72/103/1 82/118/1 42/117/1
f 23/125/1 88/126/1 89/127/1 15/128/1
f 90/129/3 91/130/3 92/131/3 93/132/3
f 22/120/1 83/119/1 88/126/1 23/125/1
f 85/122/5 94/133/5 95/134/5 86/123/5
f 69/135/6 96/136/6 18/22/6 17/21/6
f 73/137/4 11/13/4 14/16/4 97/138/4
f 13/139/2 16/140/2 98/141/2 14/142/2
f 15/128/1 89/127/1 98/143/1 16/144/1
f 27/145/4 99/146/4 5/147/4 6/148/4
f 10/149/6 9/150/6 57/151/6 100/152/6
f 43/153/4 84/154/4 101/155/4 29/156/4
f 29/156/4 101/155/4 99/146/4 27/145/4
f 55/157/4 94/158/4 85/159/4 44/160/4
f 44/160/4 85/159/4 84/154/4 43/153/4
f 62/161/4 77/162/4 76/163/4 56/164/4
f 56/164/4 76/163/4 94/158/4 55/157/4
f 10/165/4 100/166/4 102/167/4 7/168/4
f 7/168/4 102/167/4 77/162/4 62/161/4
f 51/169/2 103/170/2 104/171/2 105/172/2
f 106/173/1 57/75/1 58/78/1 107/174/1
f 68/175/5 67/176/5 108/177/5 109/178/5
f 103/179/1 51/67/1 54/70/1 110/180/1
f 71/181/6 111/182/6 112/183/6 113/184/6
f 114/185/1 33/43/1 36/46/1 115/186/1
f 116/187/3 117/188/3 118/189/3 119/190/3
f 120/191/1 30/37/1 32/40/1 121/192/1
f 122/193/2 123/194/2 4/6/2 5/5/2
f 124/195/1 1/1/1 4/4/1 123/196/1
f 89/127/1 125/197/1 126/198/1 98/143/1
f 14/142/2 98/141/2 126/199/2 97/200/2
f 83/119/1 127/201/1 128/202/1 88/126/1
f 88/203/6 128/204/6 129/205/6 130/206/6
f 72/103/1 131/207/1 132/208/1 82/118/1
f 54/209/3 33/210/3 133/211/3 134/212/3
f 68/95/1 117/213/1 111/214/1 71/102/1
f 107/215/6 58/216/6 135/217/6 136/218/6
f 18/100/1 96/219/1 116/220/1 67/94/1
f 124/221/5 121/222/5 137/223/5 138/224/5
f 139/225/4 73/137/4 97/138/4 122/226/4
f 140/227/6 106/228/6 96/136/6 69/135/6
f 63/89/4 141/229/4 142/230/4 64/90/4
f 99/231/5 101/232/5 143/233/5 144/234/5
f 90/129/4 145/235/4 146/236/4 91/130/4
f 147/237/3 148/238/3 149/239/3 150/240/3
f 147/237/4 151/241/4 152/242/4 148/238/4
f 152/242/5 151/241/5 153/243/5 154/244/5
f 140/245/4 69/97/4 70/98/4 155/246/4
f 101/232/5 84/121/5 87/124/5 143/233/5
f 151/241/6 147/237/6 150/247/6 153/248/6
f 100/166/4 140/245/4 155/246/4 102/167/4
f 25/249/3 26/250/3 156/251/3 157/252/3
f 102/253/2 155/254/2 158/255/2 159/256/2
f 155/254/2 70/257/2 160/258/2 158/255/2
f 146/236/5 145/235/5 161/259/5 162/260/5
f 60/261/3 49/262/3 163/263/3 164/264/3
f 145/235/6 90/129/6 93/265/6 161/266/6
f 100/152/6 57/151/6 106/228/6 140/227/6
f 99/146/4 139/225/4 122/226/4 5/147/4
f 125/197/1 124/195/1 123/196/1 126/198/1
f 97/200/2 126/199/2 123/194/2 122/193/2
f 127/201/1 120/191/1 121/192/1 128/202/1
f 128/202/1 121/192/1 124/195/1 125/197/1
f 131/207/1 114/185/1 115/186/1 132/208/1
f 132/208/1 115/186/1 120/191/1 127/201/1
f 117/213/1 103/179/1 110/180/1 111/214/1
f 111/214/1 110/180/1 114/185/1 131/207/1
f 96/219/1 106/173/1 107/174/1 116/220/1
f 116/220/1 107/174/1 103/179/1 117/213/1
f 136/218/1 135/217/1 105/172/1 104/171/1
f 165/267/1 166/268/1 167/269/1 168/270/1
f 130/206/1 129/205/1 169/271/1 170/272/1
f 113/184/1 112/183/1 171/273/1 172/274/1
f 128/275/3 125/276/3 169/271/3 129/205/3
f 120/277/5 115/278/5 165/267/5 168/270/5
f 125/279/2 89/280/2 170/272/2 169/271/2
f 36/281/3 30/282/3 167/269/3 166/268/3
f 131/283/2 72/284/2 172/274/2 171/273/2
f 115/285/6 36/286/6 166/268/6 165/267/6
f 72/287/5 71/288/5 113/184/5 172/274/5
f 30/289/2 120/290/2 168/270/2 167/269/2
f 89/291/5 88/292/5 130/206/5 170/272/5
f 58/293/3 51/294/3 105/172/3 135/217/3
f 111/295/3 131/296/3 171/273/3 112/183/3
f 103/297/5 107/298/5 136/218/5 104/171/5
f 173/299/1 134/212/1 133/211/1 174/300/1
f 137/223/1 175/301/1 176/302/1 138/224/1
f 177/303/1 178/304/1 179/305/1 180/306/1
f 108/177/1 119/190/1 118/189/1 109/178/1
f 121/307/6 32/308/6 175/301/6 137/223/6
f 83/309/5 82/310/5 177/303/5 180/306/5
f 1/311/2 124/312/2 138/224/2 176/302/2
f 82/313/6 132/314/6 178/304/6 177/303/6
f 67/315/6 116/316/6 119/190/6 108/177/6
f 132/317/3 127/318/3 179/305/3 178/304/3
f 114/319/5 110/320/5 173/299/5 174/300/5
f 32/321/3 1/322/3 176/302/3 175/301/3
f 127/323/2 83/324/2 180/306/2 179/305/2
f 110/325/6 54/326/6 134/212/6 173/299/6
f 117/327/2 68/328/2 109/178/2 118/189/2
f 33/329/2 114/330/2 174/300/2 133/211/2
f 160/258/4 164/264/4 163/263/4 153/331/4
f 154/332/4 81/116/4 80/115/4 161/333/4
f 153/331/4 163/263/4 81/116/4 154/332/4
f 162/334/4 181/335/4 157/252/4 182/336/4
f 161/333/4 80/115/4 181/335/4 162/334/4
f 183/337/4 156/251/4 75/108/4 74/107/4
f 182/336/4 157/252/4 156/251/4 183/337/4
f 65/338/4 183/337/4 74/107/4 184/339/4
f 92/340/4 162/334/4 182/336/4 66/341/4
f 149/342/4 154/332/4 161/333/4 93/343/4
f 158/255/4 160/258/4 153/331/4 150/344/4
f 159/256/4 158/255/4 150/344/4 78/111/4
f 79/112/4 149/342/4 93/343/4 95/134/4
f 78/111/4 150/344/4 149/342/4 79/112/4
f 86/123/4 92/340/4 66/341/4 87/124/4
f 95/134/4 93/343/4 92/340/4 86/123/4
f 143/233/4 65/338/4 184/339/4 144/234/4
f 87/124/4 66/341/4 65/338/4 143/233/4
f 94/133/5 76/109/5 79/112/5 95/134/5
f 49/262/3 50/113/3 81/116/3 163/263/3
f 40/345/3 25/249/3 157/252/3 181/335/3
f 64/90/2 142/230/2 183/346/2 65/347/2
f 77/110/5 102/348/5 159/256/5 78/111/5
f 73/106/6 139/349/6 184/339/6 74/107/6
f 139/349/6 99/350/6 144/234/6 184/339/6
f 37/114/3 40/345/3 181/335/3 80/115/3
f 91/130/2 146/236/2 162/351/2 92/352/2
f 70/257/2 60/353/2 164/264/2 160/258/2
f 141/229/6 63/89/6 66/354/6 182/355/6
f 142/230/5 141/229/5 182/356/5 183/357/5
f 148/238/2 152/242/2 154/358/2 149/359/2
f 26/250/3 11/360/3 75/108/3 156/251/3
