# Blender v2.91.0 OBJ File: 'Oven.blend'
# www.blender.org
mtllib Shelf2.mtl
o Shelf.001_Cube.027
v -2.810591 9.639587 3.912279
v -2.810591 9.755039 3.912279
v -2.810591 9.639587 0.502785
v -2.810591 9.755039 0.502785
v -2.013664 9.639587 3.912279
v -2.013664 9.755039 3.912279
v -2.013664 9.639587 0.502785
v -2.013664 9.755039 0.502785
v -2.446667 9.654208 3.414891
v -2.736686 9.644794 3.414891
v -2.737615 9.600224 3.414891
v -2.737306 9.555261 3.414891
v -2.736974 9.500473 3.414891
v -2.736659 9.437965 3.414891
v -2.736551 9.370142 3.414891
v -2.737680 9.236477 3.414891
v -2.670497 9.232424 3.414891
v -2.663550 9.302958 3.414891
v -2.642976 9.370782 3.414891
v -2.609565 9.433290 3.414891
v -2.564602 9.488077 3.414891
v -2.509815 9.533040 3.414891
v -2.447308 9.566451 3.414891
v -2.379484 9.587025 3.414891
v -2.308949 9.593972 3.414891
v -2.509815 9.533040 3.361977
v -2.564602 9.488077 3.361977
v -2.609565 9.433290 3.361977
v -2.642976 9.370783 3.361977
v -2.663550 9.302958 3.361977
v -2.670497 9.232424 3.361977
v -2.737680 9.236477 3.361978
v -2.736551 9.370142 3.361978
v -2.736659 9.437965 3.361978
v -2.736974 9.500473 3.361978
v -2.737306 9.555261 3.361978
v -2.737615 9.600224 3.361978
v -2.736686 9.644794 3.361978
v -2.446667 9.654208 3.361978
v -2.309125 9.661156 3.414891
v -2.447308 9.566451 3.361977
v -2.379484 9.587025 3.361977
v -2.308949 9.593972 3.361977
v -2.309125 9.661156 3.361978
v -2.446667 9.654208 1.031306
v -2.736686 9.644794 1.031306
v -2.737615 9.600224 1.031306
v -2.737306 9.555261 1.031306
v -2.736974 9.500473 1.031306
v -2.736659 9.437965 1.031306
v -2.736551 9.370142 1.031306
v -2.737680 9.236477 1.031306
v -2.670497 9.232424 1.031306
v -2.663550 9.302958 1.031306
v -2.642976 9.370782 1.031306
v -2.609565 9.433290 1.031306
v -2.564602 9.488077 1.031306
v -2.509815 9.533040 1.031306
v -2.447308 9.566451 1.031306
v -2.379484 9.587025 1.031306
v -2.308949 9.593972 1.031306
v -2.509815 9.533040 0.978392
v -2.564602 9.488077 0.978392
v -2.609565 9.433290 0.978392
v -2.642976 9.370783 0.978392
v -2.663550 9.302958 0.978392
v -2.670497 9.232424 0.978392
v -2.737680 9.236477 0.978393
v -2.736551 9.370142 0.978393
v -2.736659 9.437965 0.978393
v -2.736974 9.500473 0.978393
v -2.737306 9.555261 0.978393
v -2.737615 9.600224 0.978393
v -2.736686 9.644794 0.978393
v -2.446667 9.654208 0.978393
v -2.309125 9.661156 1.031306
v -2.447308 9.566451 0.978392
v -2.379484 9.587025 0.978392
v -2.308949 9.593972 0.978392
v -2.309125 9.661156 0.978393
v -2.810591 9.639587 3.703024
v -2.810591 9.755039 3.703024
v -2.013664 9.639587 3.703024
v -2.013664 9.755039 3.703024
v -2.810591 9.755039 0.679788
v -2.013664 9.639587 0.679788
v -2.810591 9.639587 0.679788
v -2.013664 9.755039 0.679788
v -2.810591 10.830700 0.679788
v -2.810591 10.830700 0.502785
v -2.013664 10.830700 0.502785
v -2.013664 10.830700 3.703024
v -2.013664 10.830700 3.912279
v -2.810591 10.830700 3.912279
v -2.810591 10.830700 3.703024
v -2.013664 10.830700 0.679788
v -2.810591 10.931833 0.679788
v -2.810591 10.931833 0.502785
v -2.013664 10.931833 0.502785
v -2.013664 10.931833 3.703024
v -2.013664 10.931833 3.912279
v -2.810591 10.931833 3.912279
v -2.810591 10.931833 3.703024
v -2.013664 10.931833 0.679788
v -2.691556 9.755039 3.703024
v -2.691556 9.755039 0.679788
v -2.691556 10.830700 3.703024
v -2.691556 10.830700 0.679788
vt 0.375000 0.237021
vt 0.625000 0.237021
vt 0.625000 0.250000
vt 0.375000 0.250000
vt 0.625000 0.500000
vt 0.375000 0.500000
vt 0.375000 0.734657
vt 0.625000 0.734657
vt 0.625000 0.750000
vt 0.375000 0.750000
vt 0.625000 1.000000
vt 0.375000 1.000000
vt 0.125000 0.734657
vt 0.125000 0.750000
vt 0.625000 0.512979
vt 0.625000 0.500000
vt 0.625000 0.512979
vt 0.000000 0.000000
vt 0.000000 0.000000
vt 0.000000 0.000000
vt 0.000000 0.000000
vt 0.000000 0.000000
vt 0.000000 0.000000
vt 0.000000 0.000000
vt 0.000000 0.000000
vt 0.000000 0.000000
vt 0.000000 0.000000
vt 0.000000 0.000000
vt 0.000000 0.000000
vt 0.000000 0.000000
vt 0.000000 0.000000
vt 0.000000 0.000000
vt 0.000000 0.000000
vt 0.000000 0.000000
vt 0.000000 0.000000
vt 0.000000 0.000000
vt 0.000000 0.000000
vt 0.000000 0.000000
vt 0.000000 0.000000
vt 0.000000 0.000000
vt 0.000000 0.000000
vt 0.000000 0.000000
vt 0.000000 0.000000
vt 0.000000 0.000000
vt 0.000000 0.000000
vt 0.000000 0.000000
vt 0.000000 0.000000
vt 0.000000 0.000000
vt 0.000000 0.000000
vt 0.000000 0.000000
vt 0.000000 0.000000
vt 0.000000 0.000000
vt 0.000000 0.000000
vt 0.000000 0.000000
vt 0.000000 0.000000
vt 0.000000 0.000000
vt 0.000000 0.000000
vt 0.000000 0.000000
vt 0.000000 0.000000
vt 0.000000 0.000000
vt 0.000000 0.000000
vt 0.000000 0.000000
vt 0.000000 0.000000
vt 0.000000 0.000000
vt 0.000000 0.000000
vt 0.000000 0.000000
vt 0.000000 0.000000
vt 0.000000 0.000000
vt 0.000000 0.000000
vt 0.000000 0.000000
vt 0.000000 0.000000
vt 0.000000 0.000000
vt 0.000000 0.000000
vt 0.000000 0.000000
vt 0.000000 0.000000
vt 0.000000 0.000000
vt 0.000000 0.000000
vt 0.000000 0.000000
vt 0.000000 0.000000
vt 0.000000 0.000000
vt 0.000000 0.000000
vt 0.000000 0.000000
vt 0.000000 0.000000
vt 0.000000 0.000000
vt 0.000000 0.000000
vt 0.000000 0.000000
vt 0.000000 0.000000
vt 0.000000 0.000000
vt 0.000000 0.000000
vt 0.125000 0.512979
vt 0.375000 0.512979
vt 0.375000 0.000000
vt 0.625000 0.000000
vt 0.625000 0.015344
vt 0.375000 0.015344
vt 0.125000 0.500000
vt 0.625000 0.015344
vt 0.625000 0.000000
vt 0.625000 0.000000
vt 0.625000 0.015344
vt 0.625000 0.500000
vt 0.625000 0.512979
vt 0.625000 0.250000
vt 0.837658 0.512979
vt 0.837658 0.512979
vt 0.625000 0.734657
vt 0.625000 0.750000
vt 0.625000 0.237021
vt 0.625000 1.000000
vt 0.625000 0.734657
vt 0.875000 0.734657
vt 0.875000 0.750000
vt 0.625000 0.750000
vt 0.875000 0.500000
vt 0.875000 0.512979
vt 0.625000 0.237021
vt 0.625000 0.250000
vt 0.625000 1.000000
vt 0.000000 0.000000
vt 0.000000 0.000000
vt 0.000000 0.000000
vt 0.000000 0.000000
vt 0.625000 0.122786
vt 0.837658 0.734657
vt 0.837658 0.734657
vn -1.0000 0.0000 0.0000
vn 0.0000 0.0000 -1.0000
vn 1.0000 0.0000 0.0000
vn 0.0000 0.0000 1.0000
vn 0.0000 -1.0000 0.0000
vn -1.0000 -0.0069 0.0000
vn 0.7730 -0.6344 0.0000
vn -1.0000 -0.0061 0.0000
vn 0.6344 -0.7730 0.0000
vn -1.0000 -0.0050 0.0000
vn 0.4714 -0.8819 0.0000
vn -1.0000 -0.0016 0.0000
vn 0.2903 -0.9569 0.0000
vn -1.0000 0.0085 0.0000
vn -0.0504 0.9987 0.0000
vn 0.0980 -0.9952 0.0000
vn 1.0000 0.0026 0.0000
vn 0.9952 -0.0980 0.0000
vn -0.0602 -0.9982 0.0000
vn -0.0324 0.9995 0.0000
vn 0.9569 -0.2903 0.0000
vn -0.9998 0.0208 0.0000
vn 0.8819 -0.4714 -0.0000
vn 0.0000 1.0000 0.0000
usemtl None
s off
f 87/1/1 85/2/1 4/3/1 3/4/1
f 3/4/2 4/3/2 8/5/2 7/6/2
f 83/7/3 84/8/3 6/9/3 5/10/3
f 5/10/4 6/9/4 2/11/4 1/12/4
f 81/13/5 83/7/5 5/10/5 1/14/5
f 88/15/3 8/5/3 91/16/3 96/17/3
f 25/18/4 40/19/4 9/20/4 24/21/4
f 23/22/4 10/23/4 11/24/4 22/25/4
f 21/26/4 12/27/4 13/28/4 20/29/4
f 19/30/4 14/31/4 15/32/4 18/33/4
f 24/21/4 9/20/4 10/23/4 23/22/4
f 22/25/4 11/24/4 12/27/4 21/26/4
f 20/29/4 13/28/4 14/31/4 19/30/4
f 18/33/4 15/32/4 16/34/4 17/35/4
f 43/36/2 42/37/2 39/38/2 44/39/2
f 41/40/2 26/41/2 37/42/2 38/43/2
f 27/44/2 28/45/2 35/46/2 36/47/2
f 29/48/2 30/49/2 33/50/2 34/51/2
f 42/37/2 41/40/2 38/43/2 39/38/2
f 26/41/2 27/44/2 36/47/2 37/42/2
f 28/45/2 29/48/2 34/51/2 35/46/2
f 30/49/2 31/52/2 32/53/2 33/50/2
f 12/27/6 11/24/6 37/42/6 36/47/6
f 21/26/7 20/29/7 28/45/7 27/44/7
f 13/28/8 12/27/8 36/47/8 35/46/8
f 22/25/9 21/26/9 27/44/9 26/41/9
f 14/31/10 13/28/10 35/46/10 34/51/10
f 23/22/11 22/25/11 26/41/11 41/40/11
f 15/32/12 14/31/12 34/51/12 33/50/12
f 24/21/13 23/22/13 41/40/13 42/37/13
f 16/34/14 15/32/14 33/50/14 32/53/14
f 9/20/15 40/19/15 44/39/15 39/38/15
f 25/18/16 24/21/16 42/37/16 43/36/16
f 40/19/17 25/18/17 43/36/17 44/39/17
f 18/33/18 17/35/18 31/52/18 30/49/18
f 17/35/19 16/34/19 32/53/19 31/52/19
f 10/23/20 9/20/20 39/38/20 38/43/20
f 19/30/21 18/33/21 30/49/21 29/48/21
f 11/24/22 10/23/22 38/43/22 37/42/22
f 20/29/23 19/30/23 29/48/23 28/45/23
f 61/54/4 76/55/4 45/56/4 60/57/4
f 59/58/4 46/59/4 47/60/4 58/61/4
f 57/62/4 48/63/4 49/64/4 56/65/4
f 55/66/4 50/67/4 51/68/4 54/69/4
f 60/57/4 45/56/4 46/59/4 59/58/4
f 58/61/4 47/60/4 48/63/4 57/62/4
f 56/65/4 49/64/4 50/67/4 55/66/4
f 54/69/4 51/68/4 52/70/4 53/71/4
f 79/72/2 78/73/2 75/74/2 80/75/2
f 77/76/2 62/77/2 73/78/2 74/79/2
f 63/80/2 64/81/2 71/82/2 72/83/2
f 65/84/2 66/85/2 69/86/2 70/87/2
f 78/73/2 77/76/2 74/79/2 75/74/2
f 62/77/2 63/80/2 72/83/2 73/78/2
f 64/81/2 65/84/2 70/87/2 71/82/2
f 66/85/2 67/88/2 68/89/2 69/86/2
f 48/63/6 47/60/6 73/78/6 72/83/6
f 57/62/7 56/65/7 64/81/7 63/80/7
f 49/64/8 48/63/8 72/83/8 71/82/8
f 58/61/9 57/62/9 63/80/9 62/77/9
f 50/67/10 49/64/10 71/82/10 70/87/10
f 59/58/11 58/61/11 62/77/11 77/76/11
f 51/68/12 50/67/12 70/87/12 69/86/12
f 60/57/13 59/58/13 77/76/13 78/73/13
f 52/70/14 51/68/14 69/86/14 68/89/14
f 45/56/15 76/55/15 80/75/15 75/74/15
f 61/54/16 60/57/16 78/73/16 79/72/16
f 76/55/17 61/54/17 79/72/17 80/75/17
f 54/69/18 53/71/18 67/88/18 66/85/18
f 53/71/19 52/70/19 68/89/19 67/88/19
f 46/59/20 45/56/20 75/74/20 74/79/20
f 55/66/21 54/69/21 66/85/21 65/84/21
f 47/60/22 46/59/22 74/79/22 73/78/22
f 56/65/23 55/66/23 65/84/23 64/81/23
f 87/90/5 86/91/5 83/7/5 81/13/5
f 86/91/3 88/15/3 84/8/3 83/7/3
f 1/92/1 2/93/1 82/94/1 81/95/1
f 7/6/3 8/5/3 88/15/3 86/91/3
f 3/96/5 7/6/5 86/91/5 87/90/5
f 81/95/1 82/94/1 85/2/1 87/1/1
f 95/97/1 94/98/1 102/99/1 103/100/1
f 96/17/3 91/16/3 99/101/3 104/102/3
f 8/5/2 4/3/2 90/103/2 91/16/2
f 106/104/4 88/15/4 96/17/4 108/105/4
f 6/9/3 84/8/3 92/106/3 93/107/3
f 82/94/1 2/93/1 94/98/1 95/97/1
f 4/3/1 85/2/1 89/108/1 90/103/1
f 2/11/4 6/9/4 93/107/4 94/109/4
f 100/110/24 103/111/24 102/112/24 101/113/24
f 99/101/24 98/114/24 97/115/24 104/102/24
f 93/107/3 92/106/3 100/110/3 101/113/3
f 90/103/1 89/108/1 97/116/1 98/117/1
f 103/111/1 97/115/1 89/108/1 95/97/1
f 100/110/24 104/102/24 97/115/24 103/111/24
f 94/109/4 93/107/4 101/113/4 102/118/4
f 91/16/2 90/103/2 98/117/2 99/101/2
f 104/102/3 100/110/3 92/106/3 96/17/3
f 95/119/3 82/120/3 85/121/3 89/122/3
f 92/106/5 107/123/5 108/105/5 96/17/5
f 107/124/3 105/125/3 106/104/3 108/105/3
f 84/8/2 105/125/2 107/124/2 92/106/2
f 88/15/24 106/104/24 105/125/24 84/8/24
